<?xml version="1.0" encoding="UTF-8"?>
<svg id="_Слой_1" data-name="Слой_1" xmlns="http://www.w3.org/2000/svg" xmlns:xlink="http://www.w3.org/1999/xlink" viewBox="0 0 700 700">
  <defs>
    <style>
      .cls-1 {
        fill: url(#linear-gradient-15);
      }

      .cls-2 {
        fill: url(#linear-gradient-13);
      }

      .cls-3 {
        fill: url(#linear-gradient-28);
      }

      .cls-4 {
        clip-path: url(#clippath-21);
      }

      .cls-5 {
        clip-path: url(#clippath-6);
      }

      .cls-6 {
        clip-path: url(#clippath-7);
      }

      .cls-7 {
        clip-path: url(#clippath-17);
      }

      .cls-8 {
        mask: url(#mask-5);
      }

      .cls-9 {
        mask: url(#mask-13);
      }

      .cls-10 {
        clip-path: url(#clippath-15);
      }

      .cls-11 {
        clip-path: url(#clippath-18);
      }

      .cls-12 {
        clip-path: url(#clippath-4);
      }

      .cls-13 {
        fill: url(#linear-gradient-2);
      }

      .cls-14 {
        fill: #fce2a6;
      }

      .cls-14, .cls-15, .cls-16, .cls-17 {
        fill-rule: evenodd;
      }

      .cls-18 {
        mask: url(#mask-1);
      }

      .cls-19 {
        fill: url(#linear-gradient-25);
      }

      .cls-20 {
        fill: url(#linear-gradient-10);
      }

      .cls-21 {
        fill: url(#linear-gradient-12);
      }

      .cls-22 {
        fill: url(#linear-gradient-27);
      }

      .cls-23 {
        mask: url(#mask-10);
      }

      .cls-15 {
        fill: #5ef9f6;
      }

      .cls-24 {
        mask: url(#mask-6);
      }

      .cls-25 {
        clip-path: url(#clippath-9);
      }

      .cls-26 {
        mask: url(#mask-7);
      }

      .cls-27 {
        clip-path: url(#clippath-10);
      }

      .cls-28 {
        mask: url(#mask);
      }

      .cls-16 {
        fill: #003780;
      }

      .cls-29 {
        fill: url(#linear-gradient-26);
      }

      .cls-30 {
        clip-path: url(#clippath-11);
      }

      .cls-31 {
        fill: url(#linear-gradient-4);
      }

      .cls-32 {
        fill: url(#linear-gradient-35);
      }

      .cls-33 {
        fill: url(#linear-gradient-30);
      }

      .cls-34 {
        mask: url(#mask-8);
      }

      .cls-35 {
        mask: url(#mask-2);
      }

      .cls-36 {
        mask: url(#mask-9);
      }

      .cls-37 {
        fill: url(#linear-gradient-3);
      }

      .cls-38 {
        fill: url(#linear-gradient-34);
      }

      .cls-39 {
        clip-path: url(#clippath-1);
      }

      .cls-40 {
        fill: url(#linear-gradient-5);
      }

      .cls-41 {
        fill: url(#linear-gradient-22);
      }

      .cls-42 {
        fill: url(#linear-gradient-24);
      }

      .cls-43 {
        fill: url(#_Безымянный_градиент_213);
      }

      .cls-44 {
        clip-path: url(#clippath-5);
      }

      .cls-45 {
        clip-path: url(#clippath-20);
      }

      .cls-46 {
        fill: url(#linear-gradient-33);
      }

      .cls-47 {
        clip-path: url(#clippath-8);
      }

      .cls-48 {
        fill: url(#_Безымянный_градиент_266);
      }

      .cls-49 {
        fill: url(#linear-gradient-8);
      }

      .cls-50 {
        clip-path: url(#clippath-3);
      }

      .cls-17 {
        fill: #005b50;
      }

      .cls-51 {
        clip-path: url(#clippath-12);
      }

      .cls-52 {
        fill: url(#linear-gradient-14);
      }

      .cls-53 {
        clip-path: url(#clippath-14);
      }

      .cls-54 {
        fill: url(#linear-gradient-29);
      }

      .cls-55 {
        clip-rule: evenodd;
        fill: none;
      }

      .cls-56 {
        fill: url(#linear-gradient-20);
      }

      .cls-57 {
        fill: url(#linear-gradient-17);
      }

      .cls-58 {
        fill: url(#linear-gradient-7);
      }

      .cls-59 {
        clip-path: url(#clippath-19);
      }

      .cls-60 {
        fill: url(#linear-gradient-9);
      }

      .cls-61 {
        fill: url(#linear-gradient-11);
      }

      .cls-62 {
        fill: url(#linear-gradient-19);
      }

      .cls-63 {
        fill: url(#linear-gradient-6);
      }

      .cls-64 {
        mask: url(#mask-11);
      }

      .cls-65 {
        fill: url(#linear-gradient-21);
      }

      .cls-66 {
        mask: url(#mask-12);
      }

      .cls-67 {
        clip-path: url(#clippath-16);
      }

      .cls-68 {
        clip-path: url(#clippath-2);
      }

      .cls-69 {
        mask: url(#mask-4);
      }

      .cls-70 {
        fill: url(#linear-gradient-32);
      }

      .cls-71 {
        clip-path: url(#clippath-13);
      }

      .cls-72 {
        fill: url(#linear-gradient-16);
      }

      .cls-73 {
        mask: url(#mask-14);
      }

      .cls-74 {
        fill: url(#linear-gradient);
      }

      .cls-75 {
        fill: url(#linear-gradient-23);
      }

      .cls-76 {
        fill: url(#linear-gradient-31);
      }

      .cls-77 {
        clip-path: url(#clippath);
      }

      .cls-78 {
        fill: url(#linear-gradient-18);
      }

      .cls-79 {
        mask: url(#mask-3);
      }
    </style>
    <clipPath id="clippath">
      <path class="cls-55" d="M426.26,325.78l-78.21,19.02c28.01,26.19,86.55,15.32,123.03-.93-2.44-9.16-4.09-18.44-5.07-27.76l-39.76,9.67Z"/>
    </clipPath>
    <linearGradient id="linear-gradient" x1="418.69" y1="358.19" x2="374.69" y2="287.57" gradientUnits="userSpaceOnUse">
      <stop offset="0" stop-color="#008a80"/>
      <stop offset="1" stop-color="#ebf855"/>
    </linearGradient>
    <linearGradient id="linear-gradient-2" x1="-1057.42" y1="2936.86" x2="-1398.28" y2="2816.61" gradientTransform="translate(1567.24 -2569.39)" gradientUnits="userSpaceOnUse">
      <stop offset="0" stop-color="#fff"/>
      <stop offset="1" stop-color="#000"/>
    </linearGradient>
    <mask id="mask" x="348.05" y="316.11" width="119.15" height="30.6" maskUnits="userSpaceOnUse">
      <rect class="cls-13" x="348.05" y="316.11" width="119.15" height="30.6"/>
    </mask>
    <clipPath id="clippath-1">
      <path class="cls-55" d="M399.7,297.06l-98.49,7.51c32.5,42.19,121.76,34.66,166.4,17.88-1.76-10.06-2.72-20.21-2.99-30.33l-64.92,4.95Z"/>
    </clipPath>
    <linearGradient id="linear-gradient-3" x1="383.07" y1="319.79" x2="255.19" y2="353.41" xlink:href="#linear-gradient"/>
    <clipPath id="clippath-2">
      <path class="cls-55" d="M368.89,252.77l-124.93-13.91c33.88,66.82,168.91,74.08,220.82,57.72-.52-11.07-.22-22.13.73-33.04l-96.63-10.76Z"/>
    </clipPath>
    <linearGradient id="linear-gradient-4" x1="329.89" y1="275.22" x2="203.51" y2="271.81" xlink:href="#linear-gradient"/>
    <clipPath id="clippath-3">
      <path class="cls-55" d="M356.8,199.47l-136.69-45.65c23.38,88.65,192.25,128.96,244.94,116.01.55-8.73,1.53-17.38,2.86-25.87l-2.42-8.18-108.68-36.3Z"/>
    </clipPath>
    <linearGradient id="linear-gradient-5" x1="361.72" y1="221.88" x2="171.29" y2="183.32" xlink:href="#linear-gradient"/>
    <clipPath id="clippath-4">
      <path class="cls-55" d="M373.2,150.66l-123.46-74.34c3.61,94.37,169.05,172.32,218.38,166.27,1.14-7.09,2.51-14.07,4.05-20.89l-.81-11.93-98.16-59.1Z"/>
    </clipPath>
    <linearGradient id="linear-gradient-6" x1="400.25" y1="206.91" x2="259.14" y2="47.36" xlink:href="#linear-gradient"/>
    <clipPath id="clippath-5">
      <path class="cls-55" d="M401.91,117.45l-100.57-90.76c-13.59,87.55,124.5,188.95,171.37,192.61,2.47-10.56,5.34-20.73,8.43-30.34l-79.22-71.5Z"/>
    </clipPath>
    <linearGradient id="linear-gradient-7" x1="451.62" y1="204.16" x2="291.68" y2="10.89" xlink:href="#linear-gradient"/>
    <clipPath id="clippath-6">
      <path class="cls-55" d="M438.06,96.26L365.05.28c-25.46,71.92,71.09,178.57,114,195.36,3.38-11.19,7.08-21.7,10.8-31.31l-51.78-68.07Z"/>
    </clipPath>
    <linearGradient id="linear-gradient-8" x1="444.08" y1="188.96" x2="385.57" y2="7.62" xlink:href="#linear-gradient"/>
    <clipPath id="clippath-7">
      <path class="cls-55" d="M484.27,323.96c-9.24-39.33-10.45-90.56,11.85-151.38l-77.4-101.75s7.16,64.58,35.23,109.12c0,0-37.13,78.51-18.2,157.78,7.86,32.93,25.4,65.99,59.29,93.6,11.3-4.31,22.33-10.25,32.96-18.27,0,0-30.32-32.03-43.73-89.09"/>
    </clipPath>
    <linearGradient id="linear-gradient-9" x1="458.84" y1="354.78" x2="482.58" y2="173.3" gradientUnits="userSpaceOnUse">
      <stop offset="0" stop-color="#00478f"/>
      <stop offset="1" stop-color="#47eadf"/>
    </linearGradient>
    <linearGradient id="linear-gradient-10" x1="-1138.35" y1="2604.34" x2="-1097.87" y2="2921.25" gradientTransform="translate(1587.55 -2548.72)" xlink:href="#linear-gradient-2"/>
    <mask id="mask-1" x="418.71" y="70.83" width="109.28" height="347.84" maskUnits="userSpaceOnUse">
      <rect class="cls-20" x="418.71" y="70.83" width="109.28" height="347.84"/>
    </mask>
    <linearGradient id="linear-gradient-11" x1="-1046.72" y1="2767.72" x2="-1317.58" y2="2672.08" gradientTransform="translate(1553.82 -2615.47)" xlink:href="#linear-gradient-2"/>
    <mask id="mask-2" x="301.34" y="26.68" width="152.46" height="159.67" maskUnits="userSpaceOnUse">
      <rect class="cls-61" x="301.34" y="26.68" width="152.46" height="159.67"/>
    </mask>
    <linearGradient id="linear-gradient-12" x1="-979" y1="2830.08" x2="-1319.86" y2="2709.82" gradientTransform="translate(1539 -2604.81)" xlink:href="#linear-gradient-2"/>
    <mask id="mask-3" x="249.74" y="76.32" width="193.17" height="147.14" maskUnits="userSpaceOnUse">
      <rect class="cls-21" x="249.74" y="76.32" width="193.17" height="147.14"/>
    </mask>
    <linearGradient id="linear-gradient-13" x1="-988.9" y1="2874.56" x2="-1329.76" y2="2754.3" gradientTransform="translate(1530.49 -2597.09)" xlink:href="#linear-gradient-2"/>
    <mask id="mask-4" x="220.11" y="153.81" width="215.48" height="96.49" maskUnits="userSpaceOnUse">
      <rect class="cls-2" x="220.11" y="153.81" width="215.48" height="96.49"/>
    </mask>
    <linearGradient id="linear-gradient-14" x1="-1012.86" y1="2914.15" x2="-1353.68" y2="2793.93" gradientTransform="translate(1537.34 -2588.28)" xlink:href="#linear-gradient-2"/>
    <mask id="mask-5" x="243.97" y="238.85" width="187.1" height="42.13" maskUnits="userSpaceOnUse">
      <rect class="cls-52" x="243.97" y="238.85" width="187.1" height="42.13"/>
    </mask>
    <linearGradient id="linear-gradient-15" x1="-1041.36" y1="2938.08" x2="-1382.22" y2="2817.83" gradientTransform="translate(1553.78 -2577.97)" xlink:href="#linear-gradient-2"/>
    <mask id="mask-6" x="301.21" y="300.37" width="130.51" height="16.49" maskUnits="userSpaceOnUse">
      <rect class="cls-1" x="301.21" y="300.37" width="130.51" height="16.49"/>
    </mask>
    <clipPath id="clippath-8">
      <path class="cls-55" d="M305.07,651.7c59.97-5.41,104.18-113.13,98.9-144.64-4.91.07-9.73,0-14.42-.2l-84.47,144.84Z"/>
    </clipPath>
    <linearGradient id="linear-gradient-16" x1="293.74" y1="653.01" x2="350.51" y2="587.01" gradientUnits="userSpaceOnUse">
      <stop offset="0" stop-color="#ffce4b"/>
      <stop offset="1" stop-color="#f856bf"/>
    </linearGradient>
    <clipPath id="clippath-9">
      <path class="cls-55" d="M360.62,587.43l-23.5,101.88c64.15-23.68,80.75-154.85,65.63-187.84-4,1.14-7.97,2.18-11.89,3.12l-18.44,31.61-11.81,51.23Z"/>
    </clipPath>
    <linearGradient id="linear-gradient-17" x1="330.29" y1="661.16" x2="382.25" y2="588.77" xlink:href="#linear-gradient-16"/>
    <clipPath id="clippath-10">
      <path class="cls-55" d="M379.76,592.2l2.34,107.52c57.98-39.83,41.35-174.82,17.94-203.88-2.02,1.17-4.04,2.31-6.05,3.42l-15.66,26.85,1.43,66.09Z"/>
    </clipPath>
    <linearGradient id="linear-gradient-18" x1="364.51" y1="646.27" x2="411.43" y2="595.35" xlink:href="#linear-gradient-16"/>
    <clipPath id="clippath-11">
      <path class="cls-55" d="M401.76,583.53l24.97,97.8c44.54-48.72.67-168.59-26.9-190.19-.81.76-1.62,1.51-2.43,2.26l-12.98,22.25,17.34,67.89Z"/>
    </clipPath>
    <linearGradient id="linear-gradient-19" x1="408.82" y1="631.6" x2="430.65" y2="579.56" xlink:href="#linear-gradient-16"/>
    <clipPath id="clippath-12">
      <path class="cls-55" d="M412.4,563.68l38.47,76.26c27.92-48.39-30.19-139.45-56.92-152.27l-.47.69c2.39,2.89,3.92,5.03,3.92,5.03l-10.97,18.81,25.97,51.47Z"/>
    </clipPath>
    <linearGradient id="linear-gradient-20" x1="438.4" y1="603.03" x2="429.45" y2="542.4" xlink:href="#linear-gradient-16"/>
    <clipPath id="clippath-13">
      <path class="cls-55" d="M290.95,355.56l-135.7,95.28c91.84,36.51,231.72-74.17,268.78-135.66-10.18-10.5-19.53-21.7-28.12-33.32l-104.96,73.7Z"/>
    </clipPath>
    <linearGradient id="linear-gradient-21" x1="265.85" y1="404.49" x2="137.87" y2="511.45" xlink:href="#linear-gradient"/>
    <clipPath id="clippath-14">
      <path class="cls-55" d="M206.08,250.82l-187,34.23c85.94,90.18,317.6,22.87,361.11-26.16-5.07-8.01-9.79-16.1-14.22-24.2l-11.22-11.09-148.67,27.22Z"/>
    </clipPath>
    <linearGradient id="linear-gradient-22" x1="278.65" y1="309.23" x2="-.14" y2="274.6" xlink:href="#linear-gradient"/>
    <clipPath id="clippath-15">
      <path class="cls-55" d="M205.49,192.9l-178.69-1.99c62.98,98.45,288.06,78.21,337.6,40.92-6.78-12.6-12.81-25.16-18.15-37.36l-140.77-1.57Z"/>
    </clipPath>
    <linearGradient id="linear-gradient-23" x1="326.33" y1="260.75" x2="-.57" y2="209.21" xlink:href="#linear-gradient"/>
    <clipPath id="clippath-16">
      <path class="cls-55" d="M588.22,375.21s52.37-5.51,86.54,31.42c0,0-4.96-31.97-18.19-41.34,22.8-59.37-46.38-107.55-109.26-97.18-100.47,16.58-182.84,241.43-175.72,324.28,67.52-62.48,192.75-100.33,216.63-217.18"/>
    </clipPath>
    <linearGradient id="_Безымянный_градиент_213" data-name="Безымянный градиент 213" x1="517.67" y1="541.23" x2="527.59" y2="270.02" gradientUnits="userSpaceOnUse">
      <stop offset=".16" stop-color="#df4574"/>
      <stop offset="1" stop-color="#d820d2"/>
    </linearGradient>
    <linearGradient id="linear-gradient-24" x1="-1031.51" y1="2747.27" x2="-1043.34" y2="2949.01" gradientTransform="translate(1601.48 -2575.56)" xlink:href="#linear-gradient-2"/>
    <mask id="mask-7" x="467.2" y="266.7" width="190.96" height="58.57" maskUnits="userSpaceOnUse">
      <rect class="cls-42" x="467.2" y="266.7" width="190.96" height="58.57"/>
    </mask>
    <clipPath id="clippath-17">
      <path class="cls-55" d="M411.42,377.7l-60.75,87.08c50.57,1.46,98.97-60.39,120.87-108.31-10.41-6.94-20.14-14.67-29.24-23.03l-30.88,44.26Z"/>
    </clipPath>
    <linearGradient id="linear-gradient-25" x1="435.05" y1="407" x2="329.9" y2="375.57" xlink:href="#linear-gradient"/>
    <linearGradient id="linear-gradient-26" x1="-1037.24" y1="2882.19" x2="-1479.31" y2="3060.78" gradientTransform="translate(1568 -2535.47)" xlink:href="#linear-gradient-2"/>
    <mask id="mask-8" x="350.67" y="333.44" width="100.79" height="131.34" maskUnits="userSpaceOnUse">
      <rect class="cls-29" x="350.67" y="333.44" width="100.79" height="131.34"/>
    </mask>
    <clipPath id="clippath-18">
      <path class="cls-55" d="M360.08,372.48l-90.86,93.39c68.97,13.36,150.68-72,180.18-127.57-10.52-8.41-20.33-17.61-29.44-27.39l-59.89,61.56Z"/>
    </clipPath>
    <linearGradient id="linear-gradient-27" x1="353.96" y1="403.07" x2="256.81" y2="547.93" xlink:href="#linear-gradient"/>
    <clipPath id="clippath-19">
      <path class="cls-55" d="M232.47,313.4l-175.04,74.16c100.51,67.27,302.71-40.26,343.51-99.06-7.07-9.12-13.65-18.53-19.76-28.08l-9.54-5.98-139.17,58.96Z"/>
    </clipPath>
    <linearGradient id="linear-gradient-28" x1="260.08" y1="336.81" x2="38.09" y2="464.86" xlink:href="#linear-gradient"/>
    <clipPath id="clippath-20">
      <path class="cls-55" d="M222.76,140.4l-155.99-31.2c37.59,93.35,226.17,114.56,283.27,93.72-6.43-14.01-11.94-27.64-16.65-40.39l-110.63-22.13Z"/>
    </clipPath>
    <linearGradient id="linear-gradient-29" x1="309.73" y1="226.62" x2="93.59" y2="98.33" xlink:href="#linear-gradient"/>
    <clipPath id="clippath-21">
      <path class="cls-55" d="M467.2,325.27c-43.47-30.84-89.38-80.44-120.42-160.07l-165.36-33.07s63.46,57.62,130.09,77.17c0,0,31.8,110.06,119.72,171.93,36.52,25.7,82.72,43.09,140.34,40.83,7.41-14.12,13.14-29.63,16.65-46.85,0,0-57.95-5.22-121.02-49.95"/>
    </clipPath>
    <linearGradient id="_Безымянный_градиент_266" data-name="Безымянный градиент 266" x1="457.3" y1="385.8" x2="322.4" y2="185.59" gradientUnits="userSpaceOnUse">
      <stop offset="0" stop-color="#00000c"/>
      <stop offset="1" stop-color="#47eadf"/>
    </linearGradient>
    <linearGradient id="linear-gradient-30" x1="-1323.89" y1="2651.25" x2="-1007.23" y2="2929.38" gradientTransform="translate(1519.37 -2557.6)" xlink:href="#linear-gradient-2"/>
    <mask id="mask-9" x="181.42" y="132.13" width="406.8" height="255.64" maskUnits="userSpaceOnUse">
      <rect class="cls-33" x="181.42" y="132.13" width="406.8" height="255.64"/>
    </mask>
    <linearGradient id="linear-gradient-31" x1="-1132.66" y1="2744.18" x2="-1484.06" y2="2886.01" gradientTransform="translate(1474.95 -2602.8)" xlink:href="#linear-gradient-2"/>
    <mask id="mask-10" x="26.8" y="190.91" width="287.57" height="39.52" maskUnits="userSpaceOnUse">
      <rect class="cls-76" x="26.8" y="190.91" width="287.57" height="39.52"/>
    </mask>
    <linearGradient id="linear-gradient-32" x1="-1021.07" y1="2740.07" x2="-1458.31" y2="2916.71" gradientTransform="translate(1472.73 -2584.89)" xlink:href="#linear-gradient-2"/>
    <mask id="mask-11" x="19.09" y="248.54" width="315.74" height="35.24" maskUnits="userSpaceOnUse">
      <rect class="cls-70" x="19.09" y="248.54" width="315.74" height="35.24"/>
    </mask>
    <linearGradient id="linear-gradient-33" x1="-1002.52" y1="2781.78" x2="-1444.59" y2="2960.37" gradientTransform="translate(1483.75 -2557.66)" xlink:href="#linear-gradient-2"/>
    <mask id="mask-12" x="57.43" y="283.78" width="295.36" height="103.78" maskUnits="userSpaceOnUse">
      <rect class="cls-46" x="57.43" y="283.78" width="295.36" height="103.78"/>
    </mask>
    <linearGradient id="linear-gradient-34" x1="-1004.84" y1="2827.43" x2="-1446.91" y2="3006.02" gradientTransform="translate(1511.85 -2539.48)" xlink:href="#linear-gradient-2"/>
    <mask id="mask-13" x="155.25" y="320.25" width="220.37" height="130.6" maskUnits="userSpaceOnUse">
      <rect class="cls-38" x="155.25" y="320.25" width="220.37" height="130.6"/>
    </mask>
    <linearGradient id="linear-gradient-35" x1="-1019.4" y1="2868.06" x2="-1461.47" y2="3046.68" gradientTransform="translate(1544.6 -2535.16)" xlink:href="#linear-gradient-2"/>
    <mask id="mask-14" x="269.22" y="351.09" width="137.8" height="114.78" maskUnits="userSpaceOnUse">
      <rect class="cls-32" x="269.22" y="351.09" width="137.8" height="114.78"/>
    </mask>
  </defs>
  <g class="cls-77">
    <rect class="cls-74" x="348.05" y="316.11" width="123.03" height="54.88"/>
  </g>
  <g class="cls-28">
    <path class="cls-17" d="M426.26,325.78l-78.21,19.02s66.69,10.94,119.15-19.54c-.47-3.05-.86-6.1-1.19-9.15l-39.76,9.67Z"/>
  </g>
  <g class="cls-39">
    <rect class="cls-37" x="301.21" y="292.11" width="166.4" height="54.65"/>
  </g>
  <g class="cls-68">
    <rect class="cls-31" x="243.97" y="238.85" width="221.55" height="74.08"/>
  </g>
  <g class="cls-50">
    <rect class="cls-40" x="220.11" y="153.81" width="247.79" height="128.96"/>
  </g>
  <g class="cls-12">
    <rect class="cls-63" x="249.74" y="76.32" width="222.43" height="172.32"/>
  </g>
  <g class="cls-44">
    <rect class="cls-58" x="287.76" y="26.68" width="193.38" height="192.61"/>
  </g>
  <g class="cls-5">
    <rect class="cls-49" x="339.59" y=".28" width="150.25" height="195.36"/>
  </g>
  <g class="cls-6">
    <rect class="cls-60" x="416.81" y="70.83" width="111.18" height="360.5"/>
  </g>
  <g class="cls-18">
    <path class="cls-15" d="M484.27,323.96c-9.24-39.33-10.45-90.56,11.85-151.38l-77.4-101.75s37.41,56.41,65.47,100.94c0,0-37.13,78.51-18.2,157.78,7.44,31.16,23.55,62.44,53.99,89.12,2.7-1.75,5.37-3.62,8.02-5.62,0,0-30.32-32.03-43.73-89.09"/>
  </g>
  <g class="cls-35">
    <path class="cls-17" d="M301.34,26.68s44.65,106.47,149.85,159.67c1.33-3.28,2.28-5.38,2.62-6.11-22.21-17.23-48.25-45.33-67.1-76.51l-85.36-77.04Z"/>
  </g>
  <g class="cls-79">
    <path class="cls-17" d="M442.91,209.89c-30.09-14.11-69.45-42.67-99.18-76.97l-93.99-56.6s93.76,110.03,189.39,147.14c1.23-4.85,2.52-9.39,3.79-13.57"/>
  </g>
  <g class="cls-69">
    <path class="cls-17" d="M220.11,153.81s104.8,79.49,213.48,96.49c.61-3.86,1.28-7.61,2-11.25-29.15-7.2-67.65-24.07-102.06-47.36l-113.42-37.88Z"/>
  </g>
  <g class="cls-8">
    <path class="cls-17" d="M243.97,238.85s69.5,50.21,186.63,41c.12-2.67.27-5.32.47-7.93-29.45-1.52-67.99-9.54-104.22-23.84l-82.87-9.23Z"/>
  </g>
  <g class="cls-24">
    <path class="cls-17" d="M301.21,304.57s65.78,18.65,130.51,10c-.45-3.94-.77-7.86-.99-11.75-22,2.03-48.31,1.51-74.36-2.45l-55.15,4.21Z"/>
  </g>
  <g class="cls-47">
    <rect class="cls-72" x="305.07" y="506.86" width="104.18" height="144.84"/>
  </g>
  <g class="cls-25">
    <rect class="cls-57" x="337.13" y="501.47" width="80.75" height="187.84"/>
  </g>
  <g class="cls-27">
    <rect class="cls-78" x="378.32" y="495.84" width="61.74" height="203.88"/>
  </g>
  <g class="cls-30">
    <rect class="cls-62" x="384.43" y="491.13" width="86.85" height="190.19"/>
  </g>
  <g class="cls-51">
    <rect class="cls-56" x="386.43" y="487.67" width="92.36" height="152.27"/>
  </g>
  <g class="cls-71">
    <rect class="cls-65" x="155.25" y="281.86" width="268.78" height="205.49"/>
  </g>
  <g class="cls-53">
    <rect class="cls-41" x="19.09" y="223.6" width="361.11" height="151.64"/>
  </g>
  <g class="cls-10">
    <rect class="cls-75" x="26.8" y="190.91" width="337.6" height="98.45"/>
  </g>
  <g class="cls-67">
    <rect class="cls-43" x="364.47" y="257.74" width="314.9" height="334.65"/>
  </g>
  <path class="cls-16" d="M385.56,495.4c29.4-61.8,111.89-72.72,156.49-73.92-35.03-2.83-65.32-13.19-91.36-27.92-6.41-3.63-12.57-7.52-18.47-11.63-.33-.23-.67-.46-1-.7-1.86,3.48-3.69,6.99-5.48,10.54-8.96,17.74-17.03,36.26-24.05,54.76-6.26,16.5-11.67,32.98-16.14,48.88"/>
  <g class="cls-26">
    <path class="cls-14" d="M467.2,325.27s97.61-61.46,190.96-1.05c-12.44-38.46-63.44-63.93-110.86-56.11-28.74,4.74-56,26.53-80.1,57.15"/>
  </g>
  <g class="cls-7">
    <rect class="cls-19" x="350.67" y="333.44" width="120.87" height="132.8"/>
  </g>
  <g class="cls-34">
    <path class="cls-17" d="M411.42,377.7l-60.75,87.08s75.51-47.38,100.79-123.32c-3.12-2.6-6.18-5.28-9.16-8.02l-30.88,44.26Z"/>
  </g>
  <g class="cls-11">
    <rect class="cls-22" x="269.22" y="310.92" width="180.18" height="168.32"/>
  </g>
  <g class="cls-59">
    <rect class="cls-3" x="57.43" y="254.44" width="343.51" height="200.38"/>
  </g>
  <g class="cls-45">
    <rect class="cls-54" x="66.77" y="109.2" width="283.27" height="114.56"/>
  </g>
  <g class="cls-4">
    <rect class="cls-48" x="181.42" y="132.13" width="406.8" height="292.2"/>
  </g>
  <g class="cls-36">
    <path class="cls-15" d="M467.2,325.27c-43.47-30.84-89.38-80.44-120.42-160.07l-165.36-33.07s86.24,23.14,152.87,42.69c0,0,31.8,110.06,119.72,171.93,34.56,24.33,77.8,41.2,131.18,41.02,1.14-4.08,2.16-8.27,3.03-12.56,0,0-57.95-5.22-121.02-49.95"/>
  </g>
  <g class="cls-23">
    <path class="cls-17" d="M26.8,190.91s137.1,66.33,287.57,27.13c-1.54-4.41-2.44-7.31-2.75-8.33-37.01,2.35-87.28-2.72-133.15-17.1l-151.67-1.69Z"/>
  </g>
  <g class="cls-64">
    <path class="cls-17" d="M326.73,248.54c-42.08,9.8-105.93,14.67-165.28,8.32l-142.36,20.75s188.77,21.48,315.74-15.75c-3.01-4.68-5.71-9.14-8.1-13.32"/>
  </g>
  <g class="cls-66">
    <path class="cls-17" d="M57.43,387.56s173.03-12.85,295.36-90.9c-2.77-4.34-5.38-8.65-7.84-12.87-35.11,18.33-87.93,35.24-142.27,42.24l-145.25,61.53Z"/>
  </g>
  <g class="cls-9">
    <path class="cls-17" d="M155.25,450.84s112.56-11,220.37-122.34c-2.22-2.74-4.37-5.5-6.46-8.25-30.45,24.2-75.57,49.91-123.89,67.39l-90.02,63.21Z"/>
  </g>
  <g class="cls-73">
    <path class="cls-17" d="M269.22,465.88s81.33-38.97,137.8-104.03c-3.88-3.51-7.63-7.1-11.24-10.76-19.99,21.2-46.46,43.66-75.69,62.49l-50.88,52.3Z"/>
  </g>
</svg>