<?xml version="1.0" encoding="UTF-8"?>
<svg id="_Слой_1" data-name="Слой_1" xmlns="http://www.w3.org/2000/svg" viewBox="0 0 3750 2369">
  <defs>
    <style>
      .cls-1 {
        fill: #fff;
      }

      .cls-2 {
        fill: #e8e8e8;
      }
    </style>
  </defs>
  <path class="cls-1" d="M1897.39,1000.32c-2.76.01-5.51.1-8.27.26-57.34,3.27-104.23,37.52-110.18,80.5-10.07-1.96-20.43-2.66-30.76-2.09-54.08,3.1-98.3,40.15-104.7,87.71-20.53-12.92-45.54-19.18-70.89-17.75-61.29,3.49-108.47,50.18-105.39,104.27,1.47,25.97,14.59,50.22,36.45,67.41,21.86,17.18,50.67,25.89,80.11,24.21,16.02-.91,31.68-4.88,45.89-11.62,16.95,20.85,48.08,32.67,81.09,30.79,28.85-1.65,55.36-13.57,71.27-32.05,17.85,17.03,45.93,26.17,75.25,24.5,18.56-1.06,36.42-6.4,51.13-15.28,23.1,19.21,56.9,29.24,91.93,27.26,35.78-2.04,68.84-16.37,89.53-38.81,22.36,21.32,54.47,32.57,87.57,30.7,29.44-1.68,57.08-13.61,76.84-33.16,19.77-19.56,30.04-45.14,28.56-71.12-3.08-54.09-55.26-95.1-116.55-91.62-9.17.55-18.24,2.09-27,4.6,1.6-7.33,2.2-14.81,1.8-22.27-1.31-22.98-12.11-44.47-30.01-59.75-17.91-15.29-41.46-23.1-65.47-21.73-12.72.74-25.15,4.04-36.47,9.69-6.25-42.97-53.94-74.83-111.73-74.64h0Z"/>
  <path class="cls-2" d="M2275.16,1297.09c-1.22-.67-2.45-1.35-3.67-2.04-1.66-.94-3.33-1.88-4.95-2.85-1.64-.98-3.24-1.98-4.84-2.98-1.59-1-3.16-2.02-4.7-3.05-1.54-1.02-3.07-2.08-4.55-3.13-1.49-1.06-2.94-2.12-4.36-3.2-1.41-1.08-2.8-2.16-4.14-3.26-1.34-1.11-2.64-2.24-3.89-3.36-1.25-1.13-2.45-2.25-3.6-3.39-1.16-1.15-2.25-2.32-3.3-3.48-1.05-1.17-2.02-2.33-2.95-3.52-.93-1.18-1.8-2.38-2.61-3.57-.8-1.2-1.64-2.32-2.5-3.39-.87-1.07-1.75-2.09-2.67-3.04-.92-.95-1.85-1.84-2.82-2.67-.97-.83-1.99-1.58-3.01-2.29-1.02-.72-2.07-1.38-3.14-1.98-1.07-.6-2.13-1.16-3.24-1.66-1.1-.5-2.24-.95-3.38-1.35-1.14-.39-2.31-.73-3.49-1.03-1.17-.3-2.37-.55-3.57-.76-1.2-.21-2.41-.38-3.64-.5-1.22-.12-2.46-.18-3.7-.22-1.25-.04-2.5-.04-3.77,0-1.26.04-2.52.1-3.79.22-1.27.11-2.55.28-3.82.47-1.28.18-2.55.38-3.84.63-1.28.25-2.58.54-3.86.85-1.28.31-2.55.63-3.83,1-1.27.36-2.53.77-3.79,1.19-1.27.42-2.52.86-3.77,1.32-1.25.46-2.47.94-3.7,1.44-1.23.51-2.46,1.03-3.67,1.57s-2.4,1.12-3.58,1.7c-1.18.57-2.33,1.15-3.48,1.75-1.15.6-2.28,1.23-3.39,1.85-2.22,1.26-4.38,2.57-6.43,3.9-2.06,1.32-4.01,2.65-5.87,4.01-1.85,1.36-3.61,2.72-5.23,4.08-1.62,1.35-3.11,2.7-4.46,4.01-1.35,1.32-2.69,2.55-4.01,3.71-1.33,1.15-2.64,2.23-3.96,3.23-1.31,1-2.59,1.92-3.89,2.76s-2.59,1.62-3.89,2.29c-.65.33-1.33.62-1.98.91-.65.29-1.29.57-1.94.82-.65.24-1.3.48-1.94.68-.66.21-1.32.38-1.98.54s-1.32.3-1.98.4c-.66.11-1.31.2-1.97.25-.67.07-1.34.11-2.02.13-.67.02-1.35.03-2.03,0s-1.36-.11-2.04-.18c-.69-.09-1.38-.16-2.07-.29-.7-.13-1.4-.29-2.11-.48-.7-.17-1.41-.37-2.13-.59-.71-.23-1.44-.5-2.16-.78-.73-.28-1.49-.58-2.23-.91-.74-.34-1.48-.68-2.23-1.07-.75-.38-1.52-.82-2.29-1.25-1.53-.88-3.11-1.86-4.71-2.95-1.59-1.1-3.22-2.3-4.89-3.61-1.67-1.32-3.37-2.73-5.11-4.27-1.75-1.54-3.53-3.21-5.37-4.99-.91-.89-1.82-1.75-2.76-2.57-.93-.83-1.87-1.63-2.82-2.38-.95-.76-1.92-1.48-2.89-2.17-.97-.69-1.94-1.35-2.92-1.98-.98-.63-1.95-1.25-2.95-1.81-.99-.57-1.97-1.1-2.98-1.61-1.01-.5-2.03-.97-3.04-1.41-1.02-.43-2.05-.85-3.07-1.22-1.04-.38-2.07-.72-3.11-1.03-1.05-.32-2.09-.6-3.14-.85s-2.11-.48-3.17-.66c-1.06-.19-2.13-.35-3.2-.47-1.08-.13-2.18-.22-3.27-.28-1.08-.07-2.14-.1-3.23-.1s-2.2.03-3.29.1c-1.1.06-2.2.13-3.3.24-1.11.12-2.22.3-3.33.48s-2.24.39-3.35.62c-1.12.25-2.24.52-3.36.82-1.13.31-2.26.64-3.39,1-1.13.37-2.26.74-3.39,1.17-1.13.42-2.25.89-3.38,1.38-1.14.47-2.26.96-3.39,1.5-1.14.54-2.29,1.13-3.42,1.73-1.14.6-2.28,1.22-3.42,1.88s-2.27,1.35-3.42,2.07c-1.14.72-2.3,1.48-3.44,2.26s-2.28,1.58-3.42,2.42c-1.14.83-2.29,1.68-3.42,2.57-1.14.89-2.29,1.81-3.42,2.76-1.13.95-2.25,1.94-3.39,2.95-1.13,1.01-2.28,2.04-3.42,3.1-2.26,2.13-4.38,4.05-6.36,5.78-1.98,1.72-3.82,3.26-5.56,4.61-.87.67-1.72,1.3-2.54,1.88-.81.58-1.61,1.11-2.38,1.6-.78.49-1.53.95-2.26,1.35-.74.4-1.46.75-2.17,1.07-.7.31-1.39.58-2.07.81-.67.23-1.32.42-1.98.57-.65.15-1.31.27-1.94.34-.64.08-1.26.1-1.88.1s-1.24-.05-1.85-.13c-.62-.08-1.24-.19-1.85-.34-.63-.16-1.26-.34-1.89-.57-.62-.22-1.24-.49-1.88-.78s-1.28-.62-1.94-.98c-.66-.35-1.33-.73-2.01-1.16-1.36-.84-2.75-1.8-4.24-2.88-1.49-1.09-3.04-2.3-4.7-3.61-1.67-1.31-3.42-2.72-5.31-4.23-1.88-1.52-3.9-3.13-6.05-4.84-2.14-1.7-4.44-3.49-6.9-5.36-2.46-1.87-5.09-3.81-7.9-5.84-2.82-2.03-5.81-4.14-9.04-6.3-1.61-1.09-3.19-2.13-4.73-3.11-1.55-.98-3.05-1.9-4.52-2.79-1.48-.89-2.92-1.74-4.33-2.54-1.42-.8-2.82-1.55-4.17-2.26-1.36-.71-2.66-1.39-3.95-2.01-1.3-.62-2.59-1.17-3.83-1.69-1.25-.53-2.45-1.04-3.64-1.48-1.2-.44-2.37-.83-3.52-1.19-1.15-.36-2.28-.67-3.38-.94-1.11-.27-2.17-.5-3.23-.69-1.07-.19-2.12-.33-3.14-.44-1.03-.11-2.06-.19-3.04-.22-1-.03-1.96-.02-2.93.03-.96.05-1.91.15-2.85.29-.93.13-1.85.3-2.76.5-.91.21-1.81.45-2.69.72-.9.29-1.8.59-2.67.94-.88.36-1.71.74-2.58,1.17-.86.42-1.72.85-2.57,1.35-.85.48-1.7,1.04-2.54,1.6-.84.55-1.68,1.15-2.51,1.78-.84.63-1.68,1.28-2.51,1.98-.84.7-1.68,1.41-2.51,2.16-.84.77-1.67,1.57-2.51,2.39-1.68,1.64-3.39,3.42-5.11,5.3-1.72,1.89-3.48,3.9-5.27,6.02-1.79,2.12-3.61,4.35-5.49,6.69s-3.83,4.79-5.83,7.34c-1.01,1.28-1.99,2.46-2.98,3.58-1,1.11-2.02,2.16-3.01,3.13-1,.97-1.99,1.85-2.98,2.67-1,.82-1.99,1.58-2.99,2.26s-2.03,1.3-3.04,1.85c-1.01.54-2.02,1.02-3.04,1.44-1.02.42-2.04.78-3.07,1.07-1.04.29-2.08.51-3.14.69-1.06.18-2.13.32-3.2.38-1.08.06-2.16.04-3.26,0-1.1-.05-2.23-.14-3.36-.29-1.13-.14-2.26-.35-3.42-.59-1.16-.25-2.34-.52-3.54-.85-1.2-.34-2.41-.71-3.64-1.13-1.23-.42-2.46-.91-3.73-1.41-1.28-.5-2.57-1.03-3.89-1.6-1.32-.58-2.66-1.18-4.02-1.82-1.36-.65-2.75-1.33-4.16-2.04-2.84-1.42-5.77-2.94-8.82-4.58-6.11-3.28-12.68-6.96-19.83-10.86-3.58-1.95-7.3-3.95-11.17-5.99-3.87-2.04-7.91-4.12-12.11-6.21-4.2-2.09-8.56-4.19-13.11-6.28-2.28-1.04-4.6-2.1-6.97-3.13-2.37-1.04-4.81-2.05-7.28-3.08-1.23-.51-2.47-.99-3.73-1.41-1.25-.42-2.51-.77-3.79-1.1-1.28-.33-2.59-.61-3.89-.85-1.31-.23-2.63-.45-3.96-.59-1.32-.15-2.64-.25-3.98-.32-1.35-.06-2.71-.07-4.08-.05-1.37.01-2.73.05-4.11.15-1.39.09-2.78.24-4.17.41-1.4.17-2.79.35-4.2.6-1.41.24-2.84.53-4.27.84-1.42.31-2.83.66-4.27,1.03-1.43.38-2.88.79-4.33,1.23-1.44.44-2.9.91-4.36,1.41-1.45.51-2.9,1.07-4.36,1.63-1.45.57-2.92,1.14-4.39,1.76-1.46.62-2.92,1.27-4.4,1.94-1.46.68-2.94,1.38-4.42,2.1-1.47.73-2.95,1.49-4.43,2.27-2.95,1.54-5.87,3.17-8.81,4.89-2.95,1.72-5.89,3.52-8.82,5.4-2.93,1.87-5.85,3.79-8.75,5.8-2.91,2-5.79,4.1-8.66,6.21s-5.71,4.26-8.53,6.46c-2.82,2.2-5.63,4.45-8.38,6.72-2.76,2.26-5.47,4.56-8.16,6.87-1.83,1.57-3.63,3.15-5.43,4.74,21.72,28.45,58.95,44.52,98.01,42.29,16.03-.92,31.69-4.9,45.9-11.65,16.95,20.86,48.06,32.69,81.07,30.81,28.85-1.64,55.37-13.55,71.28-32.03,17.86,17.01,45.93,26.14,75.23,24.47,18.57-1.05,36.43-6.39,51.14-15.28,23.1,19.22,56.92,29.25,91.95,27.27,35.77-2.05,68.82-16.38,89.51-38.81,22.36,21.33,54.48,32.6,87.59,30.72,43.54-2.51,81.75-27.24,97.73-63.25h-.03Z"/>
  <path class="cls-1" d="M1897.37,1000.33c-2.75.02-5.5.1-8.25.25-57.34,3.28-104.23,37.53-110.18,80.51-10.07-1.96-20.42-2.67-30.75-2.1-54.08,3.09-98.32,40.14-104.72,87.71-20.52-12.92-45.53-19.18-70.87-17.75-29.44,1.67-57.08,13.6-76.85,33.15-19.77,19.55-30.04,45.12-28.57,71.1,1.01,17.69,7.43,34.75,18.58,49.35,1.79-1.59,3.59-3.16,5.42-4.74,2.69-2.31,5.4-4.6,8.16-6.87,2.76-2.27,5.56-4.51,8.38-6.71,2.81-2.2,5.66-4.35,8.53-6.47,2.87-2.11,5.76-4.2,8.66-6.21,2.9-2,5.82-3.93,8.75-5.8,2.93-1.87,5.87-3.68,8.82-5.4,2.94-1.72,5.87-3.34,8.82-4.89,1.47-.78,2.95-1.54,4.42-2.26,1.47-.73,2.95-1.43,4.43-2.1,1.47-.68,2.92-1.32,4.39-1.95,1.46-.62,2.93-1.19,4.4-1.75,1.45-.57,2.9-1.13,4.36-1.64,1.45-.5,2.91-.96,4.36-1.41,1.44-.44,2.89-.84,4.32-1.22,1.44-.37,2.84-.72,4.27-1.03,1.43-.31,2.86-.61,4.27-.85,1.41-.24,2.8-.43,4.2-.6,1.4-.17,2.79-.31,4.17-.4,1.39-.1,2.75-.14,4.11-.16,1.37-.02,2.73-.01,4.08.06,1.35.07,2.66.16,3.99.32,1.32.15,2.64.35,3.94.59,1.31.24,2.62.52,3.9.85,1.28.33,2.53.68,3.79,1.1,1.26.41,2.5.89,3.74,1.41,2.46,1.02,4.91,2.03,7.27,3.07,2.37,1.04,4.69,2.09,6.97,3.14,4.55,2.09,8.91,4.18,13.11,6.27,4.21,2.09,8.24,4.18,12.11,6.21,3.88,2.04,7.6,4.05,11.17,6,7.15,3.9,13.73,7.58,19.83,10.85,3.05,1.64,5.99,3.17,8.81,4.59,1.42.7,2.82,1.39,4.18,2.03,1.36.65,2.7,1.25,4.01,1.82,1.32.58,2.61,1.1,3.89,1.6,1.28.5,2.5.99,3.73,1.41,1.24.42,2.45.8,3.64,1.14,1.19.33,2.39.59,3.55.84,1.16.24,2.29.45,3.41.6,1.13.14,2.26.23,3.36.28,1.1.04,2.19.06,3.26,0,1.08-.06,2.15-.2,3.2-.38,1.06-.17,2.1-.39,3.14-.69,1.04-.29,2.05-.65,3.07-1.06,1.02-.42,2.04-.9,3.04-1.45,1.01-.54,2.04-1.16,3.04-1.85,1.01-.68,1.99-1.44,2.98-2.26,1-.82,1.99-1.7,2.99-2.66.99-.97,2.01-2.02,3.01-3.14.99-1.12,1.98-2.3,2.98-3.58,2-2.55,3.95-5,5.83-7.34,1.89-2.34,3.7-4.56,5.49-6.68,1.79-2.12,3.55-4.13,5.27-6.03,1.73-1.88,3.43-3.65,5.11-5.3.85-.82,1.68-1.62,2.51-2.38.84-.76,1.68-1.47,2.51-2.16.84-.7,1.68-1.35,2.51-1.98.84-.63,1.67-1.23,2.51-1.79.83-.56,1.69-1.11,2.54-1.6.85-.49,1.71-.93,2.58-1.35.86-.42,1.7-.81,2.57-1.16.88-.35,1.78-.66,2.66-.94.9-.28,1.79-.52,2.7-.72.91-.21,1.83-.38,2.76-.51.94-.13,1.9-.23,2.86-.28.96-.05,1.92-.06,2.92-.03.99.02,2.01.11,3.04.22,1.03.11,2.08.25,3.14.43,1.06.19,2.12.42,3.22.69,1.11.27,2.25.59,3.4.94,1.14.36,2.31.75,3.51,1.2,1.2.44,2.4.94,3.64,1.47,1.24.53,2.53,1.08,3.83,1.7,1.3.61,2.59,1.3,3.95,2,1.35.71,2.76,1.46,4.17,2.26,1.42.8,2.85,1.65,4.33,2.54,1.48.9,2.97,1.81,4.51,2.8,1.55.98,3.13,2.02,4.74,3.1,3.23,2.16,6.22,4.28,9.04,6.31,2.81,2.02,5.44,3.96,7.9,5.83s4.75,3.66,6.9,5.37c2.16,1.7,4.17,3.32,6.06,4.83,1.88,1.51,3.64,2.93,5.3,4.23,1.66,1.31,3.21,2.53,4.7,3.61,1.49,1.08,2.88,2.05,4.24,2.89.68.42,1.36.8,2.01,1.16.65.36,1.31.68,1.94.97.64.3,1.26.56,1.89.79.62.22,1.26.41,1.87.56.63.15,1.24.27,1.86.35.62.08,1.22.12,1.85.13.63,0,1.24-.03,1.88-.1.64-.08,1.29-.2,1.95-.35.64-.15,1.3-.33,1.97-.56.68-.24,1.37-.5,2.07-.82.7-.32,1.43-.67,2.17-1.07.74-.4,1.49-.85,2.26-1.35.78-.49,1.56-1.02,2.39-1.59.82-.59,1.66-1.21,2.53-1.89,1.75-1.34,3.57-2.88,5.56-4.61,1.98-1.73,4.1-3.64,6.37-5.77,1.13-1.07,2.28-2.1,3.41-3.11,1.14-1,2.26-2,3.39-2.94,1.14-.96,2.28-1.87,3.42-2.77,1.14-.89,2.28-1.73,3.42-2.57,1.14-.83,2.27-1.64,3.41-2.41,1.15-.78,2.31-1.55,3.45-2.27,1.14-.71,2.28-1.41,3.42-2.07,1.14-.65,2.29-1.28,3.42-1.88,1.14-.6,2.29-1.18,3.42-1.72,1.13-.55,2.25-1.03,3.38-1.51,1.14-.48,2.27-.96,3.4-1.38,1.12-.42,2.25-.8,3.38-1.16,1.13-.37,2.27-.7,3.39-1,1.12-.31,2.24-.58,3.36-.82,1.12-.24,2.24-.45,3.35-.63,1.11-.18,2.23-.35,3.33-.47,1.11-.12,2.2-.2,3.3-.25,1.1-.06,2.2-.1,3.3-.1,1.08,0,2.14.03,3.22.1,1.08.07,2.2.16,3.27.28,1.08.13,2.14.29,3.2.47,1.06.19,2.12.41,3.17.66,1.05.25,2.09.53,3.14.85,1.04.31,2.07.66,3.1,1.03,1.04.38,2.06.79,3.08,1.23,1.02.43,2.04.9,3.04,1.41,1.01.5,1.99,1.03,2.98,1.6.99.56,1.97,1.19,2.95,1.82.98.63,1.95,1.28,2.92,1.97.96.7,1.94,1.41,2.89,2.17.95.76,1.89,1.56,2.82,2.38s1.85,1.69,2.77,2.57c1.82,1.78,3.61,3.45,5.36,4.99,1.75,1.55,3.44,2.96,5.11,4.27,1.67,1.32,3.3,2.52,4.9,3.61,1.6,1.09,3.17,2.07,4.7,2.95.77.43,1.54.87,2.29,1.26.75.38,1.49.73,2.23,1.06.74.33,1.5.63,2.23.91.73.28,1.45.56,2.16.79.72.23,1.43.41,2.14.59.7.18,1.4.34,2.09.47.7.13,1.39.21,2.08.29.68.08,1.36.16,2.04.19.68.03,1.36.02,2.04,0,.67-.02,1.34-.06,2.01-.13.66-.07,1.32-.14,1.98-.25s1.31-.25,1.97-.4c.65-.17,1.32-.33,1.98-.54.65-.2,1.29-.44,1.94-.69s1.3-.52,1.94-.82c.65-.29,1.33-.57,1.98-.91,1.3-.67,2.6-1.45,3.89-2.29,1.3-.83,2.58-1.75,3.9-2.76,1.31-1,2.62-2.07,3.95-3.23,1.32-1.16,2.66-2.39,4.01-3.7,1.35-1.31,2.83-2.66,4.46-4.02,1.62-1.35,3.38-2.72,5.24-4.08,1.85-1.35,3.81-2.69,5.86-4.01,2.06-1.33,4.21-2.64,6.43-3.89,1.11-.63,2.24-1.25,3.39-1.85,1.15-.6,2.3-1.18,3.49-1.76,1.17-.58,2.37-1.15,3.57-1.69,1.21-.54,2.44-1.07,3.67-1.57,1.23-.51,2.45-.98,3.7-1.44,1.26-.47,2.51-.91,3.77-1.32,1.26-.42,2.53-.83,3.79-1.2,1.28-.36,2.55-.69,3.84-1,1.28-.31,2.58-.6,3.86-.85,1.27-.25,2.55-.44,3.83-.62,1.28-.19,2.56-.36,3.82-.48,1.27-.11,2.54-.17,3.8-.22,1.26-.04,2.52-.03,3.76,0,1.25.04,2.48.1,3.7.22,1.23.12,2.44.29,3.64.51,1.2.21,2.41.45,3.58.75,1.17.3,2.33.64,3.48,1.03,1.14.4,2.28.85,3.39,1.35,1.1.5,2.17,1.06,3.23,1.66,1.07.61,2.12,1.27,3.13,1.98,1.03.72,2.05,1.47,3.02,2.29.97.83,1.9,1.72,2.82,2.67.92.95,1.81,1.97,2.66,3.04.87,1.07,1.72,2.19,2.51,3.39.8,1.2,1.68,2.4,2.61,3.58s1.91,2.35,2.95,3.51c1.04,1.17,2.14,2.34,3.29,3.49,1.16,1.14,2.36,2.26,3.61,3.38,1.25,1.13,2.55,2.26,3.89,3.36,1.34,1.1,2.73,2.18,4.14,3.26,1.42,1.08,2.88,2.15,4.36,3.2,1.49,1.06,3.01,2.11,4.55,3.14,1.54,1.03,3.12,2.04,4.7,3.04,1.59,1.01,3.2,2.01,4.84,2.98,1.63.98,3.29,1.91,4.95,2.86,1.21.69,2.45,1.37,3.68,2.04,5.82-13.08,8.43-27.08,7.65-41.04-3.09-54.08-55.27-95.1-116.55-91.61-9.17.54-18.24,2.08-27.02,4.58,1.62-7.32,2.22-14.81,1.83-22.27-1.31-22.98-12.11-44.48-30.02-59.76s-41.46-23.09-65.48-21.72c-12.71.75-25.14,4.05-36.46,9.7-6.24-42.96-53.93-74.82-111.72-74.64Z"/>
</svg>