<?xml version="1.0" encoding="UTF-8"?>
<svg id="_Слой_1" data-name="Слой_1" xmlns="http://www.w3.org/2000/svg" viewBox="0 0 3750 2369">
  <defs>
    <style>
      .cls-1 {
        fill: #fff;
      }

      .cls-2 {
        fill: #e8e8e8;
      }
    </style>
  </defs>
  <path class="cls-1" d="M1893.16,996.3c-30.48-1.05-60.94,13.93-84.75,41.67-17.99-11.85-39.93-19.57-62.99-22.17-30.55-3.44-60.88,2.35-84.3,16.11-23.43,13.75-38.04,34.33-40.61,57.22-.54,5.07-.48,10.2.18,15.33-57.91-.78-104.83,30.98-109.72,74.25-2.58,22.89,7.09,46.2,26.87,64.82,19.78,18.62,48.05,31.01,78.61,34.45,7.76.87,15.57,1.15,23.31.84,18.72,55.31,83.58,93.92,157.82,93.95,62.45-.03,119.39-27.49,146.68-70.73,12.86,7.12,28.43,10.96,44.42,10.96,22.84-.01,44.42-7.84,58.59-21.27,23.46,14.53,54.32,20.89,85.53,17.64,30.57-3.18,58.95-15.34,78.89-33.79,19.93-18.45,29.79-41.68,27.4-64.59-3.97-37.94-40.53-67.98-90.11-74.05-10.54-38.11-52.54-68.11-103.36-73.85-21.05-2.35-42.19-.33-61.1,5.83-16.71-40.68-47.44-67.28-83.12-71.94-2.72-.35-5.46-.58-8.21-.68h-.02Z"/>
  <path class="cls-2" d="M2219.13,1267.73c-1.62-.49-3.29-.96-4.86-1.47-3.11-1.01-6.12-2.07-8.97-3.14-1.43-.53-2.82-1.05-4.17-1.6-1.35-.54-2.63-1.1-3.9-1.66-1.26-.57-2.48-1.15-3.63-1.73-1.16-.57-2.28-1.13-3.33-1.72-1.05-.59-2.03-1.19-2.95-1.79-.92-.6-1.79-1.21-2.58-1.82-.78-.61-1.52-1.23-2.16-1.85s-1.21-1.25-1.7-1.88c-.97-1.26-2.02-2.55-3.16-3.83-1.15-1.29-2.38-2.58-3.68-3.86-1.29-1.28-2.64-2.54-4.08-3.8-1.43-1.25-2.95-2.49-4.51-3.7-1.57-1.2-3.21-2.39-4.9-3.51-.84-.56-1.7-1.1-2.57-1.63-.88-.54-1.77-1.06-2.67-1.57-.89-.51-1.8-1-2.73-1.48-.93-.48-1.87-.94-2.82-1.38-.95-.44-1.91-.88-2.89-1.28-.97-.41-1.96-.8-2.95-1.16-1-.37-2-.69-3.01-1.01-1.02-.32-2.05-.64-3.08-.91s-2.05-.5-3.1-.72c-1.05-.22-2.1-.43-3.17-.6-1.07-.17-2.15-.29-3.23-.4-1.08-.11-2.17-.2-3.27-.25-1.09-.05-2.18-.08-3.3-.06-1.1.01-2.21.07-3.32.16-1.12.08-2.27.19-3.39.34-1.12.16-2.25.34-3.39.57-1.13.22-2.24.47-3.38.78s-2.31.65-3.45,1.04c-1.15.38-2.27.82-3.42,1.28-1.15.47-2.3.96-3.45,1.51-1.15.55-2.33,1.18-3.48,1.82-1.16.64-2.31,1.3-3.45,2.04-1.16.73-2.29,1.45-3.42,2.13s-2.25,1.32-3.36,1.95c-1.11.62-2.23,1.25-3.33,1.82s-2.18,1.08-3.26,1.6c-1.07.51-2.14,1.01-3.2,1.47s-2.12.88-3.17,1.28c-1.04.41-2.07.81-3.11,1.17-1.04.35-2.05.67-3.07.97-1.03.3-2.06.57-3.07.81-1.02.25-2.01.47-3.01.67-1,.19-2.02.35-3.01.5-1,.14-1.98.25-2.98.35-.99.09-1.99.15-2.98.18-.99.04-1.97.07-2.95.06-.98,0-1.96-.06-2.95-.12-.98-.07-1.97-.17-2.95-.29-.98-.12-1.97-.24-2.95-.4-.98-.17-1.96-.36-2.95-.57-.98-.21-1.96-.46-2.95-.72-.99-.26-1.99-.57-2.98-.88-1-.32-2.01-.64-3.01-1.01-1-.36-2-.75-3.01-1.16s-2.03-.82-3.04-1.28c-1.02-.46-2.02-.97-3.04-1.48-2.06-1.01-4.14-2.09-6.25-3.29-2.11-1.2-4.26-2.51-6.43-3.89-2.17-1.39-4.38-2.88-6.62-4.45-2.24-1.58-4.51-3.24-6.84-5-.61-.43-1.18-.83-1.75-1.22-.61-.38-1.17-.77-1.75-1.1-.61-.33-1.14-.63-1.72-.91-.61-.27-1.17-.52-1.75-.75-.61-.23-1.17-.44-1.76-.63-.61-.18-1.2-.36-1.79-.5-.61-.14-1.17-.25-1.75-.35-.61-.09-1.2-.19-1.79-.25-.61-.05-1.16-.08-1.75-.09-.61,0-1.19-.02-1.79,0-1.2.05-2.4.16-3.61.35s-2.42.44-3.64.75c-1.21.32-2.44.7-3.67,1.13-1.23.42-2.46.89-3.7,1.41-1.25.53-2.48,1.12-3.73,1.73-1.25.61-2.52,1.26-3.79,1.94-1.27.69-2.57,1.4-3.86,2.14-2.58,1.47-5.18,3.05-7.84,4.67-2.66,1.63-5.38,3.3-8.13,4.96-2.75,1.65-5.53,3.29-8.38,4.86-1.42.79-2.88,1.55-4.33,2.29-1.45.75-2.91,1.45-4.39,2.14-1.47.68-2.95,1.36-4.46,1.97-1.5.62-3.04,1.19-4.57,1.72-1.54.54-3.08,1.02-4.64,1.45s-3.17.81-4.77,1.13-3.2.59-4.83.78c-.82.1-1.65.19-2.48.25-.83.06-1.64.1-2.48.13-.84.03-1.7.04-2.55.03-.84-.01-1.69-.04-2.54-.09s-1.71-.13-2.57-.22c-.86-.09-1.73-.21-2.6-.35-.88-.13-1.76-.29-2.64-.47-.88-.18-1.74-.37-2.64-.59-.89-.23-1.8-.48-2.7-.76-.9-.27-1.81-.58-2.73-.91-.91-.32-1.84-.65-2.76-1.03-.92-.38-1.83-.79-2.76-1.22-.94-.43-1.88-.9-2.82-1.39-.94-.48-1.9-.99-2.85-1.53-.95-.55-1.89-1.06-2.82-1.54-.94-.48-1.87-.93-2.79-1.35-.92-.41-1.85-.77-2.76-1.13-.91-.35-1.8-.7-2.7-1-.89-.3-1.75-.55-2.64-.79-.88-.23-1.77-.44-2.63-.62-.87-.19-1.72-.34-2.57-.48-.85-.13-1.7-.26-2.54-.34-.84-.09-1.65-.15-2.48-.19-.82-.04-1.66-.04-2.48-.03-.81.01-1.61.04-2.41.09s-1.59.12-2.39.22c-.79.09-1.6.18-2.39.31-.78.13-1.55.28-2.32.44-1.54.33-3.07.73-4.57,1.19-1.51.46-2.98,1-4.46,1.57-1.47.57-2.92,1.19-4.36,1.85s-2.88,1.37-4.3,2.1c-1.42.74-2.81,1.5-4.21,2.3-1.39.79-2.77,1.61-4.14,2.44-1.38.83-2.75,1.69-4.11,2.54-2.71,1.7-5.38,3.41-8.06,5.09-1.34.83-2.68,1.64-4.01,2.44-1.34.8-2.68,1.58-4.01,2.33-1.34.74-2.65,1.46-3.98,2.13-1.34.67-2.67,1.29-4.01,1.88-1.34.58-2.7,1.13-4.05,1.6-1.36.47-2.71.88-4.08,1.22-.68.18-1.39.34-2.07.48-.69.13-1.38.27-2.07.37-.69.11-1.38.16-2.07.22-.7.06-1.4.11-2.1.13s-1.39.02-2.1,0c-.71-.03-1.42-.09-2.13-.16-.72-.07-1.45-.16-2.17-.28-.72-.13-1.47-.27-2.2-.44-.73-.17-1.46-.37-2.2-.6-.73-.22-1.48-.47-2.23-.75s-1.47-.6-2.23-.94-1.52-.7-2.29-1.1c-.77-.4-1.52-.85-2.29-1.32-.77-.46-1.57-.94-2.36-1.47-.79-.53-1.56-1.1-2.36-1.69-.8-.6-1.61-1.22-2.42-1.89-.8-.66-1.59-1.36-2.41-2.1-.82-.74-1.65-1.51-2.48-2.32-.83-.81-1.67-1.65-2.51-2.54-.84-.89-1.69-1.83-2.54-2.79-.86-.97-1.77-1.88-2.73-2.77-.96-.88-1.97-1.73-3.04-2.53-1.07-.81-2.18-1.57-3.36-2.3-1.17-.72-2.4-1.42-3.68-2.07-1.27-.65-2.59-1.27-3.95-1.85-1.37-.57-2.78-1.12-4.24-1.63-1.46-.51-2.95-.97-4.49-1.41-1.54-.44-3.14-.85-4.77-1.23-1.63-.37-3.29-.72-4.99-1.03s-3.46-.57-5.24-.82c-1.78-.24-3.58-.47-5.43-.65-1.85-.19-3.73-.32-5.64-.44-1.92-.13-3.86-.24-5.84-.32-1.98-.06-4.01-.11-6.05-.13-2.04-.01-4.09,0-6.18.04s-4.23.1-6.37.19c-2.14.08-4.3.21-6.49.34-2.19.13-4.41.29-6.65.47-2.23.19-4.5.37-6.78.6-2.27.22-4.56.45-6.87.72-4.62.53-9.31,1.17-14.05,1.85-4.74.68-9.54,1.44-14.37,2.26s-9.7,1.7-14.59,2.64-9.77,1.94-14.68,2.98c-4.91,1.04-9.84,2.13-14.75,3.26-.06.01-.12.02-.18.03,19.75,20.14,49.22,33.69,81.32,37.37,7.77.86,15.57,1.13,23.31.81,18.71,55.31,83.57,93.92,157.8,93.96,62.46-.02,119.42-27.49,146.7-70.74,12.86,7.13,28.43,10.97,44.42,10.98,22.84-.02,44.41-7.85,58.57-21.27,23.46,14.52,54.32,20.88,85.52,17.63,34.87-3.68,66.62-18.98,86.34-41.63h0Z"/>
  <path class="cls-1" d="M1893.16,996.29c-30.48-1.05-60.95,13.92-84.77,41.67-17.98-11.84-39.92-19.55-62.96-22.15-30.55-3.45-60.88,2.35-84.31,16.1-23.43,13.75-38.04,34.33-40.62,57.22-.54,5.08-.48,10.21.18,15.34-57.89-.77-104.8,30.97-109.71,74.23-2.37,21.7,6.25,43.81,24.16,61.93.06-.02.12-.02.18-.03,4.91-1.13,9.84-2.22,14.75-3.27,4.91-1.04,9.8-2.04,14.68-2.98,4.89-.94,9.76-1.81,14.59-2.63s9.63-1.58,14.37-2.26c4.74-.69,9.43-1.32,14.06-1.85,2.31-.27,4.59-.5,6.87-.72,2.28-.23,4.54-.42,6.78-.6s4.46-.33,6.65-.47c2.19-.14,4.35-.26,6.49-.35,2.14-.08,4.27-.15,6.37-.18,2.09-.04,4.14-.05,6.18-.04,2.04.02,4.07.06,6.05.13,1.98.07,3.92.19,5.84.32,1.92.13,3.8.25,5.64.43,1.85.18,3.65.42,5.43.66,1.78.25,3.53.51,5.24.82s3.36.66,4.99,1.03c1.62.37,3.23.79,4.77,1.23,1.54.43,3.03.9,4.49,1.41,1.46.51,2.87,1.05,4.24,1.63,1.36.57,2.68,1.2,3.95,1.85,1.27.65,2.5,1.34,3.68,2.07s2.29,1.49,3.36,2.29c1.07.81,2.08,1.66,3.04,2.54.96.89,1.88,1.8,2.73,2.76.86.97,1.7,1.91,2.54,2.79.84.89,1.68,1.74,2.51,2.55.82.81,1.66,1.58,2.48,2.32.81.74,1.61,1.44,2.41,2.1.81.66,1.62,1.28,2.42,1.88.8.6,1.57,1.17,2.36,1.69.79.54,1.58,1.02,2.36,1.48.77.46,1.52.92,2.29,1.32.77.4,1.54.76,2.29,1.09.75.34,1.48.67,2.23.95s1.5.53,2.23.75c.73.23,1.47.43,2.2.59.73.18,1.48.32,2.2.44.72.12,1.45.22,2.17.29.71.07,1.43.13,2.13.16.71.02,1.4,0,2.1,0,.7-.02,1.4-.07,2.1-.13.7-.06,1.38-.12,2.07-.22.69-.1,1.38-.24,2.07-.38.68-.14,1.39-.29,2.07-.47,1.36-.35,2.73-.75,4.08-1.23,1.36-.47,2.71-1.01,4.05-1.59,1.34-.59,2.68-1.21,4.01-1.89,1.34-.67,2.65-1.39,3.98-2.13,1.34-.74,2.68-1.52,4.01-2.32,1.34-.8,2.68-1.61,4.01-2.45,2.68-1.67,5.35-3.38,8.06-5.08,1.36-.85,2.74-1.71,4.11-2.54,1.37-.83,2.75-1.66,4.14-2.45,1.39-.79,2.79-1.55,4.21-2.29,1.41-.74,2.85-1.44,4.3-2.1s2.89-1.28,4.36-1.85,2.95-1.11,4.46-1.57c1.5-.46,3.04-.86,4.57-1.19.77-.17,1.54-.31,2.32-.44.79-.13,1.59-.23,2.39-.32.79-.09,1.58-.17,2.39-.22.8-.05,1.6-.08,2.41-.08.82,0,1.65,0,2.48.03.83.03,1.64.1,2.48.18.84.09,1.69.22,2.54.35.85.14,1.7.29,2.57.47.87.18,1.75.39,2.63.63.88.24,1.74.49,2.64.79.89.29,1.79.64,2.7,1,.9.35,1.84.71,2.76,1.13.92.41,1.85.87,2.79,1.35s1.87.99,2.82,1.53c.95.55,1.91,1.05,2.85,1.54.94.49,1.89.95,2.82,1.38.93.43,1.84.85,2.76,1.22.92.38,1.84.72,2.76,1.04.91.33,1.83.64,2.73.91.9.27,1.8.53,2.7.75.89.23,1.75.42,2.63.6.88.18,1.76.33,2.64.47.87.14,1.74.26,2.6.35.86.09,1.72.17,2.57.22s1.7.08,2.54.09c.85,0,1.71-.01,2.55-.03.83-.03,1.65-.06,2.48-.13.82-.06,1.66-.15,2.48-.25,1.63-.19,3.23-.46,4.83-.79,1.6-.32,3.2-.69,4.77-1.12,1.57-.43,3.11-.91,4.64-1.45,1.54-.53,3.07-1.1,4.57-1.72,1.51-.62,2.98-1.29,4.46-1.98,1.48-.69,2.95-1.39,4.39-2.13,1.45-.75,2.91-1.51,4.33-2.29,2.85-1.57,5.63-3.21,8.38-4.87,2.75-1.65,5.46-3.33,8.13-4.95,2.66-1.62,5.26-3.2,7.84-4.68,1.3-.74,2.59-1.45,3.86-2.13s2.54-1.33,3.79-1.94c1.26-.62,2.49-1.2,3.73-1.73,1.25-.53,2.48-.99,3.7-1.41,1.23-.43,2.45-.82,3.67-1.13,1.21-.32,2.44-.57,3.64-.75,1.2-.19,2.41-.31,3.61-.35.61-.02,1.2-.02,1.79,0,.61.01,1.16.04,1.75.09.61.06,1.2.15,1.79.25.61.1,1.16.21,1.75.35.61.14,1.2.31,1.79.5.61.19,1.17.39,1.76.63.61.23,1.17.47,1.75.75.61.28,1.14.58,1.72.91.61.33,1.17.71,1.75,1.1.61.38,1.18.78,1.75,1.22,2.33,1.75,4.6,3.42,6.84,4.99s4.45,3.07,6.62,4.46c2.17,1.38,4.32,2.68,6.43,3.88,2.11,1.21,4.19,2.29,6.25,3.3,1.02.5,2.03,1.01,3.04,1.47,1.02.47,2.04.88,3.04,1.29s2.01.8,3.01,1.16c1,.37,2.02.69,3.01,1,1,.32,1.99.62,2.98.88.99.27,1.96.52,2.95.73s1.97.4,2.95.56c.98.17,1.97.29,2.95.41.98.11,1.96.22,2.95.28.98.07,1.97.12,2.95.13.98.01,1.96-.03,2.95-.06.99-.04,1.99-.1,2.98-.19s1.98-.2,2.98-.34c1-.15,2.01-.31,3.01-.51,1-.19,2-.41,3.01-.66,1.01-.25,2.05-.52,3.07-.81,1.03-.3,2.04-.62,3.07-.97,1.03-.36,2.05-.76,3.11-1.17,1.05-.4,2.11-.82,3.17-1.28,1.06-.47,2.12-.97,3.2-1.48,1.07-.51,2.16-1.03,3.26-1.6,1.09-.57,2.22-1.19,3.33-1.82,1.11-.62,2.23-1.26,3.36-1.94s2.27-1.4,3.41-2.14c1.16-.73,2.3-1.39,3.45-2.04,1.15-.64,2.34-1.26,3.49-1.82,1.15-.55,2.3-1.03,3.45-1.5,1.15-.47,2.27-.9,3.41-1.29,1.15-.38,2.32-.73,3.45-1.03,1.14-.31,2.25-.56,3.39-.79,1.14-.22,2.27-.41,3.39-.56,1.12-.15,2.27-.26,3.39-.34,1.12-.09,2.22-.15,3.32-.17,1.11-.01,2.2.02,3.3.07,1.09.04,2.19.13,3.26.24,1.09.11,2.17.25,3.24.41,1.06.17,2.12.38,3.16.6,1.05.22,2.07.45,3.11.72,1.03.27,2.06.59,3.08.91,1.01.32,2.01.64,3,1,1,.37,1.98.76,2.96,1.16.97.41,1.94.85,2.89,1.29.94.44,1.9.9,2.82,1.38.92.48,1.83.97,2.73,1.47.9.52,1.8,1.04,2.67,1.57.87.54,1.73,1.08,2.57,1.63,1.69,1.13,3.33,2.32,4.9,3.52,1.56,1.2,3.07,2.45,4.51,3.7,1.44,1.26,2.79,2.51,4.08,3.8,1.29,1.28,2.53,2.57,3.68,3.85,1.14,1.29,2.19,2.57,3.16,3.83.49.64,1.05,1.27,1.7,1.89.64.62,1.37,1.24,2.16,1.85.79.61,1.65,1.22,2.58,1.82.92.6,1.9,1.2,2.95,1.79,1.04.58,2.17,1.15,3.32,1.72,1.16.58,2.39,1.16,3.64,1.73,1.27.56,2.54,1.11,3.89,1.66,1.35.55,2.75,1.07,4.17,1.6,2.86,1.07,5.87,2.13,8.98,3.14,1.57.51,3.24.98,4.86,1.47,14.91-17.04,21.95-37.06,19.95-56.75-3.98-37.93-40.53-67.97-90.1-74.04-10.54-38.11-52.54-68.13-103.38-73.85-21.05-2.35-42.18-.34-61.08,5.83-16.71-40.69-47.46-67.29-83.14-71.94-2.71-.36-5.45-.59-8.19-.69h-.02Z"/>
</svg>