<?xml version="1.0" encoding="UTF-8"?>
<svg id="_Слой_1" data-name="Слой_1" xmlns="http://www.w3.org/2000/svg" viewBox="0 0 3750 2369">
  <defs>
    <style>
      .cls-1 {
        fill: #fff;
      }

      .cls-2 {
        fill: #e8e8e8;
      }
    </style>
  </defs>
  <path class="cls-1" d="M1871.06,1007.91c-70.25.03-134.68,31.5-167.3,81.72-17.79-6.72-37.18-10.21-56.83-10.23-35.62,0-69.78,11.42-94.97,31.76-25.19,20.34-39.33,47.91-39.33,76.67s14.15,56.33,39.34,76.66c25.18,20.33,59.34,31.75,94.96,31.75,8.37,0,16.71-.65,24.92-1.91,3.65,12.8,9.82,24.36,18.22,34.15,39.01,45.43,116.25,43.08,172.52-5.25,2.04-1.75,4.02-3.56,5.97-5.41,4.44,3.51,9.07,6.8,13.86,9.85,59.04,37.33,131.32,31.89,166.25-12.52,17.12,6.14,35.65,9.32,54.39,9.34,74.17,0,134.3-48.53,134.3-108.4,0-28.75-14.14-56.33-39.33-76.66-25.19-20.33-59.35-31.75-94.97-31.75-17.59.02-35.01,2.84-51.26,8.28-24.26-64.18-97.62-108.03-180.74-108.05Z"/>
  <path class="cls-2" d="M2227.19,1257.52c-.19-.06-.31-.12-.49-.24-4.58-2.09-9.15-4.13-13.67-6.11-4.54-1.99-9.01-3.9-13.46-5.75-4.45-1.85-8.88-3.64-13.23-5.34-4.35-1.7-8.66-3.32-12.9-4.86-4.23-1.53-8.42-2.99-12.52-4.34-2.06-.67-4.07-1.34-6.08-1.96-2.02-.62-4-1.21-5.97-1.78-1.97-.55-3.93-1.11-5.86-1.63-1.93-.55-3.86-1.02-5.74-1.48-1.89-.48-3.76-.89-5.6-1.3-1.83-.41-3.62-.8-5.41-1.15-1.78-.34-3.56-.64-5.3-.93-1.73-.28-3.43-.52-5.12-.74-1.67-.22-3.31-.41-4.93-.56s-3.22-.25-4.78-.33c-1.56-.08-3.1-.14-4.6-.15-1.49,0-2.94.01-4.37.07-1.43.07-2.82.2-4.18.34-1.37.14-2.72.3-4.01.52-1.29.22-2.52.48-3.74.78s-2.42.62-3.56,1c-1.14.38-2.23.83-3.3,1.3-1.06.49-2.09.96-3.07,1.52-.99.55-1.92,1.13-2.82,1.78-.9.64-1.78,1.34-2.6,2.08-.81.73-1.63,1.42-2.45,2.07s-1.62,1.27-2.44,1.85c-.83.61-1.66,1.16-2.49,1.67-.82.48-1.65,1-2.48,1.45-.83.42-1.69.84-2.52,1.22-.84.36-1.65.72-2.48,1.04-.84.3-1.68.61-2.52.85s-1.72.49-2.56.71c-.85.18-1.7.36-2.55.48s-1.7.24-2.56.3c-.85.12-1.7.12-2.56.18-.85.04-1.72.05-2.59.04-.86-.01-1.69-.05-2.55-.12-.86-.06-1.76-.18-2.63-.25-.87-.12-1.73-.24-2.59-.36-.87-.12-1.76-.3-2.63-.48-1.75-.36-3.51-.82-5.27-1.34-1.76-.48-3.52-1.07-5.3-1.71-1.77-.64-3.55-1.34-5.33-2.07-1.79-.74-3.55-1.51-5.34-2.34-1.79-.82-3.61-1.7-5.41-2.59-1.8-.89-3.6-1.8-5.41-2.75-3.62-1.88-7.28-3.83-10.93-5.78-3.65-1.95-7.3-3.91-10.97-5.78-1.84-.94-3.68-1.89-5.53-2.78-1.84-.89-3.67-1.73-5.52-2.55-1.84-.82-3.7-1.6-5.56-2.34-1.85-.73-3.7-1.45-5.56-2.07-1.85-.63-3.7-1.2-5.56-1.71-.93-.25-1.85-.48-2.78-.7s-1.85-.41-2.78-.59c-.93-.18-1.89-.34-2.82-.48s-1.85-.27-2.78-.37-1.85-.17-2.78-.22c-.93-.06-1.85-.11-2.78-.11-.93-.01-1.85.03-2.78.07-.93.04-1.89.09-2.82.19-.92.09-1.85.23-2.77.37-.93.15-1.86.32-2.79.52-.93.2-1.85.41-2.78.67s-1.85.57-2.78.89c-.93.32-1.85.69-2.78,1.07-.93.38-1.85.77-2.78,1.22-.93.45-1.86.96-2.78,1.48-.92.52-1.86,1.08-2.78,1.67-.92.59-1.82,1.19-2.75,1.85-.92.66-1.85,1.38-2.78,2.11-1.84,1.48-3.69,2.92-5.52,4.3-1.82,1.38-3.61,2.69-5.41,3.96-1.8,1.28-3.59,2.53-5.37,3.71-1.79,1.18-3.58,2.29-5.34,3.37-1.76,1.09-3.52,2.12-5.26,3.11-1.75.99-3.47,1.96-5.19,2.86-1.73.9-3.41,1.75-5.11,2.55-1.7.81-3.4,1.55-5.08,2.26-1.68.72-3.38,1.41-5.04,2.04s-3.29,1.2-4.93,1.74c-1.64.55-3.27,1.04-4.89,1.48-1.62.48-3.26.86-4.86,1.23-1.6.36-3.16.68-4.74.96-1.58.3-3.18.55-4.74.74-1.56.18-3.09.37-4.63.49-1.55.12-3.07.24-4.6.24-1.52.04-3.02.04-4.52,0-1.5-.04-3.01-.12-4.49-.24s-2.95-.25-4.41-.43c-1.46-.18-2.93-.43-4.37-.7-1.44-.25-2.88-.55-4.3-.89-1.42-.3-2.82-.7-4.22-1.11-1.4-.43-2.8-.86-4.19-1.34-1.38-.49-2.75-.98-4.11-1.52-1.37-.55-2.74-1.13-4.08-1.74-1.35-.61-2.68-1.25-4-1.93-1.32-.68-2.62-1.37-3.93-2.11-1.3-.74-2.6-1.53-3.89-2.34-1.29-.8-2.59-1.61-3.85-2.48-1.27-.87-2.5-1.78-3.75-2.71-1.25-.92-2.52-1.87-3.74-2.85-1.23-.98-2.42-2-3.63-3.04-2.42-2.09-5.02-4.29-7.78-6.56-2.77-2.27-5.71-4.63-8.79-7.01-1.54-1.19-3.13-2.39-4.74-3.59s-3.28-2.39-4.97-3.59c-1.68-1.2-3.39-2.4-5.15-3.6-1.76-1.19-3.58-2.38-5.41-3.56-1.83-1.17-3.67-2.3-5.56-3.45s-3.82-2.3-5.78-3.41c-1.95-1.11-3.95-2.17-5.97-3.22s-4.08-2.08-6.15-3.08c-2.08-1-4.17-1.96-6.3-2.89s-4.31-1.82-6.49-2.67c-2.18-.84-4.36-1.62-6.6-2.37-2.22-.76-4.5-1.5-6.78-2.15-2.27-.65-4.57-1.23-6.89-1.78-2.32-.55-4.65-1.02-7.01-1.45s-4.75-.82-7.15-1.11c-1.2-.14-2.42-.26-3.63-.37s-2.41-.22-3.63-.3c-1.22-.08-2.44-.11-3.67-.15-1.22-.04-2.43-.07-3.67-.07-1.23,0-2.5.03-3.73.07-1.25.04-2.5.11-3.75.19s-2.48.18-3.75.3c-1.25.12-2.51.24-3.78.41-1.26.16-2.55.38-3.82.59-1.26.21-2.54.45-3.81.7-1.28.26-2.54.51-3.82.82-1.29.3-2.57.65-3.86,1-1.28.35-2.6.71-3.89,1.11-1.29.4-2.59.84-3.89,1.3s-2.59.94-3.89,1.45c-1.31.5-2.59,1.04-3.9,1.59-1.3.56-2.61,1.12-3.92,1.74-1.31.61-2.65,1.25-3.97,1.93-1.31.67-2.61,1.39-3.93,2.11-1.31.73-2.64,1.47-3.96,2.26-1.32.79-2.64,1.6-3.96,2.45-1.33.85-2.64,1.72-3.97,2.63-1.32.91-2.64,1.84-3.96,2.82-1.33.97-2.64,2-3.97,3.04-1.32,1.04-2.67,2.09-4,3.19-1.33,1.1-2.63,2.24-3.96,3.41-7.11,6.24-16.08,14.05-23.87,20.86,18.22,44.21,69.4,74.09,127.12,74.2,8.36-.02,16.7-.66,24.91-1.93,3.65,12.81,9.83,24.38,18.23,34.17,18.73,21.82,47.43,33.52,79.79,32.54,32.35-.98,65.71-14.57,92.74-37.77,2.03-1.76,4.02-3.56,5.97-5.41,4.44,3.5,9.07,6.78,13.86,9.82,59.03,37.32,131.29,31.89,166.22-12.49,17.13,6.13,35.67,9.3,54.41,9.3,54.35,0,103.35-26.43,124.12-66.97v.11Z"/>
</svg>