<?xml version="1.0" encoding="UTF-8"?>
<svg id="_Слой_1" data-name="Слой_1" xmlns="http://www.w3.org/2000/svg" viewBox="0 0 3750 2369">
  <defs>
    <style>
      .cls-1 {
        fill: #fff;
      }

      .cls-2 {
        fill: #e8e8e8;
      }
    </style>
  </defs>
  <path class="cls-1" d="M1784.8,999.8c-81.92.04-151.11,52.94-161.72,123.64-10.15-.94-20.52-.83-30.81.32-63.62,7.16-110.84,51.6-105.47,99.26,5.36,47.66,61.28,80.49,124.9,73.33,4.1-.47,8.17-1.09,12.21-1.88,6.79,46.64,62.06,78.26,124.57,71.24,21.91-2.46,42.84-9.57,60.33-20.46,24,16.45,56.99,23.74,90.39,19.98,18.14-2.04,35.66-7.27,51.14-15.24,23.79,15.24,55.61,21.86,87.76,18.24,41.83-4.72,78.46-26.06,95.68-55.75,1.73.27,3.46.49,5.21.69,63.67,6.63,119.31-26.66,124.29-74.36,2.38-22.9-7.48-46.14-27.41-64.59-19.94-18.45-48.32-30.6-78.9-33.79-32-3.31-63.59,3.49-87.2,18.78-8.83-24.41-38.4-41.36-72.15-41.36-18.48.02-36.29,5.15-50.01,14.42-5.76-74.56-76.94-132.47-162.81-132.47Z"/>
  <path class="cls-2" d="M2231.83,1290.38c-.69-.42-1.34-.8-2.04-1.22-3.58-2.19-7.23-4.47-10.95-6.88-3.72-2.4-7.5-4.93-11.33-7.55-3.83-2.64-7.69-5.36-11.61-8.23-1.95-1.43-3.92-2.9-5.89-4.39-1.97-1.48-3.95-3-5.93-4.55-1.98-1.55-3.97-3.13-5.96-4.73-1.99-1.61-3.97-3.26-5.97-4.93-1.98-1.67-3.93-3.24-5.8-4.74s-3.7-2.92-5.46-4.26c-1.76-1.34-3.45-2.58-5.11-3.77-1.65-1.18-3.25-2.29-4.8-3.32-1.55-1.04-3.06-2.03-4.52-2.92-1.45-.9-2.86-1.72-4.24-2.48-1.37-.76-2.71-1.44-4.01-2.07-1.29-.63-2.54-1.22-3.76-1.73-1.22-.5-2.39-.92-3.55-1.31-1.15-.39-2.29-.73-3.38-1.01-1.1-.28-2.16-.51-3.21-.69-1.04-.17-2.07-.3-3.07-.37-.99-.08-1.95-.08-2.91-.06-.96,0-1.93.08-2.86.18-.93.11-1.83.23-2.73.41-.91.18-1.82.43-2.69.69-.89.26-1.77.55-2.64.88-.88.33-1.74.68-2.61,1.07-.86.38-1.73.81-2.6,1.25-.87.44-1.76.92-2.64,1.41-1.76.99-3.55,2.08-5.39,3.23-1.84,1.15-3.73,2.38-5.71,3.64-1.98,1.26-4.02,2.57-6.18,3.89-2.17,1.33-4.44,2.68-6.84,4.02-1.21.67-2.43,1.34-3.71,2.01-1.27.66-2.57,1.32-3.92,1.97-1.35.66-2.74,1.28-4.17,1.92-1.43.63-2.93,1.27-4.46,1.88-1.52.61-2.99,1.24-4.42,1.88s-2.82,1.31-4.17,1.98c-1.35.67-2.66,1.32-3.92,2.01-1.27.69-2.51,1.4-3.71,2.1-1.2.7-2.37,1.39-3.51,2.1-1.14.71-2.24,1.45-3.33,2.16-2.17,1.43-4.24,2.84-6.24,4.24-2,1.4-3.95,2.78-5.84,4.11-1.89,1.33-3.74,2.62-5.58,3.83-.93.61-1.84,1.19-2.77,1.75-.92.57-1.83,1.11-2.76,1.64-.93.52-1.85,1.02-2.79,1.5-.94.48-1.89.93-2.85,1.35-.97.42-1.96.83-2.96,1.19-.99.36-2,.68-3.03.98-1.04.29-2.06.56-3.15.78-1.07.22-2.19.39-3.32.53-1.13.15-2.3.26-3.49.32-1.19.06-2.41.06-3.67.03-1.26-.03-2.53-.09-3.86-.22-1.34-.12-2.73-.3-4.14-.53-1.42-.22-2.89-.52-4.39-.85-1.51-.33-3.04-.71-4.65-1.16-1.6-.45-3.27-.97-4.99-1.54-1.71-.56-3.47-1.16-5.29-1.85-1.83-.69-3.71-1.44-5.65-2.26-1.95-.81-3.98-1.71-6.05-2.66-2.08-.96-4.22-1.98-6.44-3.08-2.2-1.1-4.48-2.27-6.84-3.51-2.35-1.25-4.66-2.42-6.9-3.48-2.24-1.07-4.42-2.05-6.55-2.95-2.14-.9-4.19-1.71-6.21-2.45-2.03-.74-4.01-1.39-5.94-1.98-1.92-.58-3.79-1.09-5.61-1.53-1.83-.45-3.63-.83-5.37-1.13-1.74-.31-3.42-.56-5.08-.73-1.66-.16-3.28-.26-4.86-.31-1.59-.05-3.14-.04-4.65.03-1.51.07-3,.2-4.46.38-1.44.17-2.84.38-4.23.65-1.39.29-2.75.61-4.08.98-1.34.37-2.67.79-3.96,1.26-1.28.45-2.55.96-3.79,1.5-1.24.53-2.46,1.08-3.67,1.7-1.21.6-2.4,1.26-3.58,1.94-1.17.67-2.33,1.37-3.48,2.1-1.15.73-2.29,1.48-3.42,2.26-1.14.78-2.27,1.59-3.39,2.41-1.12.83-2.24,1.66-3.36,2.51-2.22,1.72-4.45,3.47-6.68,5.28-2.23,1.8-4.46,3.65-6.74,5.49-2.29,1.84-4.62,3.67-7,5.48-1.19.91-2.39,1.81-3.6,2.7-1.23.89-2.48,1.77-3.74,2.64-1.26.86-2.52,1.71-3.82,2.54-1.31.84-2.63,1.65-3.99,2.45-1.35.79-2.76,1.57-4.17,2.32s-2.85,1.47-4.33,2.16c-1.47.7-2.91,1.29-4.36,1.82-1.44.54-2.88,1-4.29,1.38-1.42.39-2.82.68-4.21.91-1.39.24-2.77.41-4.14.51-1.37.1-2.73.13-4.08.1-1.35-.04-2.71-.13-4.05-.29s-2.69-.38-4.01-.66c-1.33-.27-2.64-.62-3.95-1-1.32-.38-2.65-.83-3.96-1.32-1.31-.48-2.61-1.02-3.92-1.6-1.31-.58-2.64-1.21-3.95-1.88-1.31-.67-2.6-1.38-3.92-2.14-1.31-.75-2.64-1.55-3.95-2.38-1.33-.83-2.66-1.68-3.99-2.57-1.33-.9-2.67-1.81-4.01-2.76-1.34-.96-2.69-1.94-4.05-2.95-2.72-2.02-5.45-4.13-8.25-6.31s-5.66-4.45-8.57-6.74c-2.9-2.3-5.84-4.62-8.88-6.97-3.03-2.35-6.16-4.68-9.34-7.03-1.6-1.17-3.2-2.35-4.84-3.51s-3.3-2.31-4.99-3.45c-1.68-1.14-3.38-2.27-5.11-3.39-1.73-1.11-3.48-2.21-5.27-3.29-1.78-1.09-3.59-2.13-5.43-3.17-1.84-1.04-3.71-2.05-5.61-3.04-1.9-1-3.81-1.99-5.77-2.92-1.96-.94-3.98-1.85-6-2.73-1.73-.76-3.44-1.47-5.14-2.14-1.71-.66-3.38-1.27-5.05-1.85-1.67-.58-3.32-1.13-4.96-1.63-1.63-.5-3.26-.93-4.86-1.35-1.61-.41-3.2-.79-4.77-1.13-1.57-.33-3.11-.65-4.65-.91-1.53-.26-3.05-.47-4.55-.66-1.5-.18-2.98-.35-4.45-.47-1.47-.11-2.93-.17-4.36-.22-1.44-.04-2.87-.08-4.27-.06-1.4.02-2.8.07-4.17.16-1.37.08-2.74.2-4.08.35-1.34.14-2.65.32-3.95.53-1.31.2-2.61.43-3.9.69-1.27.26-2.54.57-3.79.88-1.24.31-2.45.63-3.67,1-1.22.37-2.42.78-3.61,1.19-1.18.43-2.36.86-3.51,1.32-1.16.46-2.3.94-3.42,1.45-1.12.51-2.23,1.05-3.33,1.6-1.09.55-2.17,1.1-3.23,1.69-1.06.59-2.1,1.22-3.13,1.85-1.04.63-2.08,1.25-3.08,1.91-1.01.67-2,1.35-2.98,2.04-.98.7-1.94,1.41-2.88,2.14-.95.72-1.88,1.44-2.8,2.19-1.84,1.5-3.6,3.08-5.33,4.68-1.73,1.6-3.41,3.25-5.02,4.92-1.62,1.68-3.17,3.39-4.68,5.12-1.51,1.73-2.93,3.47-4.32,5.24-1.4,1.76-2.76,3.54-4.06,5.33-1.28,1.79-2.51,3.58-3.7,5.36-1.07,1.61-2.06,3.21-3.04,4.8,23.82,15.73,56.02,22.65,88.63,19.05,4.1-.47,8.17-1.1,12.2-1.89,6.79,46.64,62.05,78.25,124.55,71.25,21.91-2.46,42.84-9.56,60.33-20.45,24.02,16.45,57.01,23.75,90.42,19.98,18.14-2.04,35.66-7.26,51.14-15.24,23.79,15.23,55.61,21.84,87.75,18.22,41.83-4.71,78.46-26.04,95.69-55.71,1.73.24,3.46.46,5.21.65,34.76,3.58,68.87-4.79,92.83-22.77h.01Z"/>
  <path class="cls-1" d="M1784.8,999.8c-81.93.04-151.13,52.94-161.73,123.64-10.15-.93-20.52-.83-30.81.32-30.55,3.44-58.83,15.83-78.61,34.45-19.78,18.61-29.44,41.93-26.87,64.81,2.5,21.3,15.43,40.64,36.3,54.28.98-1.59,1.98-3.2,3.04-4.8,1.19-1.79,2.41-3.58,3.71-5.36,1.29-1.79,2.65-3.57,4.05-5.34,1.39-1.77,2.82-3.51,4.33-5.24,1.5-1.73,3.05-3.43,4.67-5.11,1.61-1.68,3.29-3.33,5.02-4.93,1.72-1.59,3.5-3.17,5.34-4.67.91-.75,1.84-1.47,2.79-2.2.94-.72,1.91-1.44,2.88-2.13.98-.7,1.97-1.38,2.98-2.04,1.01-.66,2.04-1.29,3.08-1.91,1.03-.63,2.07-1.27,3.13-1.86,1.07-.58,2.14-1.14,3.23-1.69,1.1-.55,2.21-1.09,3.33-1.6,1.12-.51,2.26-.98,3.42-1.44,1.15-.47,2.33-.9,3.52-1.32,1.18-.42,2.39-.82,3.6-1.19,1.22-.37,2.42-.69,3.67-1.01,1.25-.31,2.52-.62,3.8-.87,1.27-.27,2.58-.49,3.89-.7,1.31-.2,2.61-.38,3.95-.53,1.34-.15,2.71-.26,4.08-.35,1.37-.08,2.77-.13,4.17-.16,1.41-.01,2.83.02,4.27.07,1.44.04,2.89.1,4.36.22,1.47.11,2.95.28,4.46.47,1.5.19,3.01.4,4.54.66,1.54.26,3.08.57,4.65.91,1.56.33,3.17.71,4.77,1.13,1.6.41,3.23.85,4.86,1.35,1.63.49,3.29,1.05,4.96,1.63,1.67.57,3.35,1.18,5.05,1.85,1.71.66,3.41,1.38,5.15,2.13,2.02.88,4.03,1.79,5.99,2.73,1.96.94,3.87,1.93,5.77,2.92,1.9.99,3.78,2,5.62,3.04s3.64,2.09,5.42,3.17c1.79,1.08,3.54,2.18,5.27,3.3,1.73,1.11,3.43,2.24,5.11,3.38,1.69,1.14,3.36,2.29,5,3.45s3.23,2.34,4.83,3.52c3.19,2.34,6.31,4.68,9.35,7.02,3.03,2.35,5.97,4.68,8.87,6.97,2.91,2.29,5.77,4.57,8.57,6.74,2.8,2.18,5.53,4.3,8.25,6.31,1.36,1.01,2.7,2,4.05,2.95,1.34.96,2.69,1.87,4.01,2.76,1.33.9,2.67,1.75,3.99,2.57,1.32.83,2.64,1.63,3.95,2.39,1.31.75,2.61,1.46,3.92,2.13,1.31.67,2.64,1.3,3.95,1.88,1.31.59,2.61,1.12,3.92,1.6,1.32.49,2.64.94,3.96,1.32,1.31.38,2.63.73,3.95,1.01,1.33.27,2.68.5,4.01.66,1.35.15,2.7.25,4.05.28,1.35.04,2.71,0,4.08-.1,1.37-.09,2.75-.26,4.14-.5,1.39-.24,2.79-.53,4.21-.91,1.41-.38,2.85-.85,4.3-1.38,1.44-.54,2.89-1.13,4.35-1.82,1.48-.7,2.93-1.42,4.34-2.16,1.4-.75,2.81-1.53,4.16-2.33,1.36-.79,2.68-1.61,3.99-2.44,1.3-.84,2.57-1.68,3.82-2.55,1.27-.86,2.52-1.74,3.74-2.63,1.22-.89,2.41-1.79,3.6-2.7,2.38-1.82,4.71-3.65,7-5.49,2.28-1.84,4.51-3.68,6.75-5.49,2.22-1.8,4.45-3.56,6.68-5.27,1.11-.85,2.23-1.69,3.35-2.51,1.13-.82,2.25-1.64,3.39-2.41,1.14-.79,2.27-1.54,3.42-2.27,1.15-.72,2.31-1.43,3.48-2.1,1.18-.67,2.37-1.33,3.58-1.94,1.21-.61,2.43-1.16,3.67-1.69,1.25-.54,2.51-1.05,3.8-1.51,1.29-.46,2.61-.89,3.95-1.26s2.69-.69,4.08-.97c1.39-.28,2.79-.48,4.24-.66,1.44-.18,2.94-.31,4.45-.37,1.51-.07,3.06-.08,4.65-.03,1.58.04,3.2.13,4.86.31,1.66.17,3.34.42,5.08.72,1.75.3,3.53.69,5.37,1.13,1.83.44,3.69.95,5.61,1.54,1.93.59,3.91,1.24,5.94,1.97,2.02.75,4.08,1.55,6.21,2.45,2.13.9,4.31,1.88,6.56,2.95,2.23,1.07,4.54,2.24,6.89,3.48,2.36,1.25,4.63,2.42,6.84,3.52,2.22,1.09,4.36,2.12,6.44,3.07,2.07.96,4.11,1.85,6.05,2.67,1.95.82,3.82,1.57,5.65,2.26,1.83.69,3.58,1.28,5.3,1.85,1.71.56,3.38,1.09,4.99,1.54,1.61.44,3.14.82,4.64,1.16,1.51.33,2.98.62,4.39.84,1.42.23,2.81.41,4.14.54,1.34.13,2.6.19,3.86.22,1.26.03,2.49.03,3.67-.03,1.2-.06,2.36-.18,3.49-.32,1.13-.15,2.25-.31,3.33-.54,1.07-.21,2.1-.49,3.14-.78,1.03-.29,2.04-.61,3.04-.97.99-.36,1.98-.77,2.95-1.2.96-.41,1.91-.87,2.85-1.34.94-.48,1.86-.98,2.79-1.51s1.84-1.06,2.77-1.63c.92-.57,1.84-1.15,2.76-1.76,1.84-1.21,3.69-2.49,5.58-3.83,1.89-1.32,3.84-2.7,5.84-4.1,1.99-1.41,4.07-2.82,6.24-4.24,1.09-.71,2.19-1.46,3.33-2.16,1.14-.71,2.31-1.41,3.51-2.11,1.2-.7,2.44-1.41,3.71-2.1,1.27-.68,2.57-1.34,3.92-2.01,1.35-.66,2.74-1.33,4.17-1.97,1.43-.65,2.9-1.27,4.42-1.89,1.53-.61,3.03-1.24,4.46-1.88,1.43-.63,2.82-1.26,4.17-1.91,1.35-.66,2.65-1.31,3.92-1.98,1.27-.66,2.5-1.34,3.71-2,2.4-1.35,4.68-2.7,6.84-4.02,2.16-1.33,4.2-2.63,6.18-3.89,1.97-1.27,3.86-2.49,5.71-3.64,1.84-1.15,3.63-2.24,5.4-3.23.88-.49,1.76-.97,2.63-1.42.87-.44,1.74-.86,2.6-1.25.88-.39,1.74-.74,2.61-1.07.88-.32,1.75-.61,2.64-.88.88-.26,1.79-.5,2.69-.69.9-.18,1.8-.3,2.73-.4.93-.1,1.9-.17,2.86-.19.96-.02,1.92-.01,2.92.06.99.07,2.02.2,3.07.38,1.04.17,2.1.41,3.2.69,1.09.28,2.23.61,3.39,1,1.15.39,2.32.81,3.54,1.32,1.22.5,2.47,1.09,3.76,1.73,1.3.62,2.65,1.3,4.02,2.07,1.37.75,2.77,1.58,4.23,2.47,1.46.9,2.97,1.88,4.52,2.92,1.56,1.04,3.15,2.14,4.81,3.33,1.65,1.18,3.35,2.42,5.11,3.76,1.76,1.34,3.58,2.77,5.46,4.27,1.86,1.5,3.81,3.07,5.8,4.73,1.99,1.67,3.97,3.32,5.96,4.93,1.99,1.61,3.98,3.19,5.96,4.74,1.98,1.54,3.96,3.06,5.93,4.55,1.98,1.49,3.94,2.96,5.9,4.39,3.91,2.86,7.78,5.59,11.61,8.22,3.83,2.63,7.6,5.16,11.32,7.56,3.72,2.41,7.38,4.69,10.95,6.87.7.43,1.35.81,2.04,1.23,18.23-13.62,29.33-31.82,31.44-51.58,2.39-22.91-7.47-46.14-27.41-64.6-19.93-18.45-48.31-30.6-78.88-33.79-32.01-3.31-63.61,3.5-87.22,18.79-8.83-24.4-38.39-41.34-72.13-41.35-18.47,0-36.29,5.14-50.01,14.4-5.78-74.55-76.96-132.46-162.82-132.45h-.01Z"/>
</svg>