<?xml version="1.0" encoding="UTF-8"?>
<svg id="_Слой_1" data-name="Слой_1" xmlns="http://www.w3.org/2000/svg" viewBox="0 0 3750 2369">
  <defs>
    <style>
      .cls-1 {
        fill: #fff;
      }

      .cls-2 {
        fill: #e8e8e8;
      }
    </style>
  </defs>
  <path class="cls-1" d="M1848.18,1022.89c-69.88.03-128.16,53.43-134.27,123.05-11.14-3.99-22.88-6.03-34.71-6.03-56.94,0-103.1,46.16-103.1,103.1s46.16,103.09,103.1,103.09c26.72-.02,52.4-10.41,71.6-28.99,17.23,16.84,40.36,26.29,64.45,26.31,23.85-.02,46.78-9.27,63.96-25.81,17.04,15.71,39.37,24.43,62.55,24.43,26.24-.02,51.23-11.2,68.73-30.76,17.52,21.18,43.57,33.44,71.05,33.46,24.48,0,47.96-9.73,65.27-27.04,17.31-17.31,27.04-40.79,27.03-65.27-.03-49.3-38.8-89.88-88.05-92.15,0-.35.02-.69.03-1.04,0-21.25-8.44-41.64-23.47-56.67-15.03-15.03-35.41-23.47-56.67-23.47-14.34,0-28.42,3.86-40.76,11.17-24.09-41.69-68.59-67.37-116.75-67.38h0Z"/>
  <path class="cls-2" d="M2172.85,1265.87c-.48-.09-.89-.16-1.35-.25-3.56-.66-7.21-1.3-10.92-1.88-3.7-.58-7.46-1.11-11.29-1.6-1.91-.25-3.83-.51-5.77-.72-1.94-.22-3.9-.41-5.86-.6-1.97-.2-3.95-.37-5.94-.54-1.98-.15-3.96-.3-5.96-.43-2-.13-3.95-.29-5.84-.48-1.88-.18-3.71-.41-5.48-.65-1.78-.24-3.5-.49-5.18-.79-1.67-.29-3.29-.6-4.86-.94-1.58-.34-3.08-.72-4.55-1.09-1.48-.39-2.91-.78-4.3-1.2-1.38-.42-2.72-.87-4.01-1.32-1.3-.45-2.55-.9-3.77-1.38-1.21-.48-2.4-.97-3.54-1.47-1.14-.51-2.23-1.02-3.3-1.54-1.07-.52-2.1-1.03-3.11-1.57-1-.53-1.98-1.08-2.91-1.63-.94-.54-1.83-1.08-2.7-1.63-.88-.55-1.72-1.08-2.55-1.63-1.64-1.1-3.21-2.19-4.67-3.26s-2.83-2.13-4.14-3.14c-1.31-1.01-2.54-1.98-3.73-2.89-1.2-.91-2.34-1.76-3.45-2.54-.55-.39-1.12-.75-1.67-1.1-.54-.34-1.09-.67-1.63-.97-.55-.3-1.06-.6-1.6-.85-.55-.25-1.1-.46-1.63-.66-.55-.19-1.06-.36-1.61-.5-.54-.14-1.1-.27-1.66-.35-.55-.07-1.13-.09-1.7-.09-.54,0-1.13,0-1.72.07-.61.06-1.2.2-1.82.34-.62.15-1.24.31-1.88.53-.65.23-1.3.5-1.95.79-.64.29-1.31.6-1.97.94s-1.32.71-1.98,1.1c-.67.39-1.34.79-2.02,1.22-1.34.86-2.71,1.79-4.1,2.79-1.4,1.01-2.82,2.07-4.27,3.17-2.89,2.21-5.89,4.57-9.04,6.9-1.57,1.17-3.18,2.32-4.83,3.45-1.65,1.14-3.31,2.24-5.05,3.3-.87.53-1.78,1.06-2.67,1.57-.89.5-1.77.97-2.7,1.44-.91.47-1.85.92-2.79,1.35-.94.43-1.89.87-2.85,1.26-.98.38-1.96.75-2.95,1.09-1,.34-2.02.66-3.05.94-1.02.29-2.08.53-3.13.76-1.06.22-2.12.43-3.21.59-1.08.17-2.2.29-3.32.38-1.13.09-2.27.17-3.42.19-1.16,0-2.32-.03-3.51-.1-1.2-.07-2.39-.16-3.61-.32-1.23-.15-2.47-.35-3.73-.59-1.27-.24-2.56-.51-3.87-.85-1.29-.34-2.61-.75-3.95-1.19-1.34-.44-2.7-.93-4.08-1.48-2.75-1.09-5.51-2.26-8.28-3.45-2.77-1.18-5.57-2.4-8.35-3.64-5.55-2.46-11.11-4.97-16.65-7.37-2.78-1.2-5.52-2.36-8.28-3.48-2.77-1.11-5.54-2.18-8.29-3.17-1.37-.49-2.71-.96-4.08-1.41-1.36-.46-2.75-.88-4.11-1.29-1.36-.4-2.72-.8-4.08-1.16-1.35-.35-2.7-.7-4.05-1-1.35-.31-2.68-.58-4.01-.82-1.34-.24-2.66-.45-3.98-.62-1.33-.18-2.67-.31-3.99-.41-1.31-.1-2.61-.16-3.92-.19-1.3-.03-2.63-.03-3.92.03s-2.57.17-3.86.32c-1.28.14-2.56.36-3.83.59-1.27.25-2.54.51-3.79.85-1.26.34-2.5.75-3.74,1.19-1.25.44-2.51.92-3.73,1.48-1.23.55-2.43,1.18-3.64,1.85-1.21.66-2.41,1.37-3.61,2.16-1.19.79-2.39,1.66-3.57,2.58-1.18.91-2.33,1.9-3.49,2.94-1.16,1.05-2.31,2.15-3.45,3.33-1.14,1.18-2.27,2.44-3.39,3.77-1.12,1.32-2.26,2.57-3.39,3.76-1.12,1.19-2.26,2.3-3.39,3.36-1.12,1.05-2.24,2.05-3.38,2.98-1.14.92-2.27,1.77-3.42,2.57s-2.32,1.54-3.49,2.23c-1.16.68-2.33,1.31-3.51,1.88s-2.38,1.07-3.57,1.53c-1.21.47-2.39.9-3.61,1.26-1.22.37-2.46.68-3.71.94-1.24.27-2.52.48-3.79.66s-2.56.32-3.86.41-2.62.14-3.95.15c-1.34.02-2.68,0-4.05-.06-1.37-.05-2.76-.15-4.18-.28-1.4-.13-2.81-.28-4.26-.47-1.45-.2-2.93-.42-4.43-.66-1.48-.25-2.98-.55-4.52-.85-1.53-.3-3.09-.6-4.67-.94-3.17-.69-6.44-1.48-9.82-2.32-3.37-.84-6.87-1.73-10.48-2.67-3.6-.95-7.31-1.94-11.17-2.95-3.85-1.01-7.85-2.05-11.98-3.07-4.13-1.03-8.38-2.05-12.8-3.05-2.21-.49-4.46-.99-6.74-1.47-2.29-.49-4.64-.95-7-1.41-2.37-.47-4.77-.91-7.22-1.35-2.44-.44-4.93-.88-7.46-1.29-1.27-.2-2.56-.36-3.83-.5-1.27-.15-2.55-.29-3.83-.38s-2.54-.12-3.82-.16c-1.29-.03-2.58-.05-3.87-.03-1.28.02-2.57.06-3.86.13-1.29.07-2.57.16-3.86.28-1.29.13-2.57.28-3.86.44-1.29.17-2.57.35-3.86.57-1.29.21-2.6.46-3.89.72-1.29.25-2.57.51-3.86.82-1.29.29-2.57.62-3.86.97-1.29.34-2.54.68-3.82,1.06-1.28.38-2.58.78-3.86,1.2-1.28.41-2.53.86-3.8,1.31-1.27.45-2.56.93-3.83,1.41-1.27.49-2.54.99-3.8,1.51s-2.51,1.05-3.76,1.6c-1.25.54-2.49,1.09-3.73,1.66-2.49,1.15-4.95,2.38-7.41,3.64-2.45,1.26-4.9,2.55-7.31,3.89-1.68.94-3.33,1.91-4.99,2.89,12.45,44.46,52.94,75.22,99.11,75.29,26.71-.02,52.38-10.41,71.59-28.99,17.23,16.85,40.37,26.28,64.47,26.29,23.84-.01,46.76-9.25,63.94-25.78,17.05,15.7,39.38,24.41,62.55,24.4,26.25-.01,51.24-11.19,68.74-30.74,17.52,21.16,43.56,33.42,71.03,33.44,45.79,0,84.66-33.57,91.33-78.87h.04Z"/>
  <path class="cls-1" d="M1848.17,1022.91c-69.87.02-128.14,53.41-134.27,123.01-11.14-3.98-22.88-6.02-34.7-6.02-27.35,0-53.58,10.86-72.91,30.2-19.34,19.34-30.19,45.57-30.18,72.92.05,9.4,1.39,18.75,3.98,27.79,1.66-.97,3.31-1.94,4.99-2.88,2.41-1.35,4.86-2.64,7.31-3.89,2.45-1.26,4.92-2.49,7.41-3.64,1.24-.58,2.48-1.11,3.73-1.66s2.51-1.09,3.77-1.6c1.26-.52,2.53-1.02,3.79-1.51,1.27-.48,2.56-.96,3.83-1.41,1.27-.45,2.52-.9,3.79-1.32,1.28-.42,2.58-.81,3.86-1.19,1.28-.38,2.54-.73,3.82-1.07,1.29-.34,2.57-.67,3.86-.97,1.29-.3,2.57-.56,3.86-.82,1.29-.25,2.6-.5,3.89-.71,1.29-.22,2.57-.4,3.86-.57,1.29-.17,2.57-.32,3.86-.44,1.29-.12,2.57-.21,3.86-.28,1.29-.08,2.57-.11,3.86-.13,1.28-.02,2.57,0,3.86.03,1.28.03,2.55.07,3.82.16,1.28.09,2.56.23,3.83.37,1.28.15,2.56.3,3.82.51,2.54.4,5.03.85,7.47,1.29,2.46.43,4.86.88,7.22,1.34,2.37.47,4.71.93,7,1.41,2.28.49,4.53.98,6.74,1.48,4.42,1,8.67,2.02,12.8,3.04,4.13,1.03,8.13,2.07,11.99,3.08,3.85,1.01,7.56,2,11.16,2.95,3.61.94,7.11,1.82,10.49,2.66,3.37.85,6.65,1.64,9.81,2.32,1.59.35,3.14.65,4.68.95,1.53.29,3.03.6,4.51.84,1.49.25,2.98.47,4.43.66,1.44.19,2.86.34,4.27.48,1.41.12,2.8.22,4.17.28,1.37.06,2.71.08,4.05.06,1.33-.01,2.65-.07,3.95-.16,1.3-.08,2.59-.23,3.86-.4,1.28-.18,2.55-.4,3.8-.66,1.24-.27,2.48-.58,3.7-.94,1.22-.37,2.41-.79,3.6-1.26,1.21-.46,2.4-.96,3.58-1.54,1.18-.57,2.35-1.2,3.52-1.88,1.16-.68,2.33-1.43,3.48-2.23,1.15-.8,2.28-1.64,3.42-2.57,1.14-.92,2.26-1.93,3.39-2.98,1.13-1.05,2.26-2.17,3.38-3.35,1.13-1.19,2.27-2.44,3.39-3.77,1.13-1.33,2.25-2.58,3.39-3.76,1.14-1.19,2.29-2.28,3.45-3.33,1.17-1.04,2.31-2.03,3.49-2.95,1.18-.91,2.38-1.78,3.57-2.57,1.2-.79,2.4-1.5,3.61-2.17,1.22-.66,2.41-1.29,3.64-1.85,1.23-.55,2.49-1.03,3.73-1.47,1.25-.44,2.48-.85,3.73-1.19,1.26-.34,2.53-.61,3.8-.85,1.27-.24,2.54-.45,3.83-.6,1.28-.14,2.56-.25,3.86-.31,1.29-.06,2.62-.06,3.92-.03,1.31.02,2.61.08,3.93.18,1.31.11,2.66.24,3.98.41,1.33.18,2.65.39,3.98.63,1.34.24,2.67.51,4.01.82,1.35.3,2.7.64,4.05,1,1.36.36,2.72.75,4.08,1.16,1.36.41,2.75.83,4.11,1.29,1.37.45,2.71.92,4.08,1.41,2.75.99,5.52,2.05,8.28,3.17,2.77,1.11,5.52,2.28,8.29,3.48,5.54,2.4,11.1,4.9,16.66,7.37,2.78,1.24,5.57,2.46,8.34,3.64,2.77,1.19,5.53,2.35,8.28,3.45,1.38.55,2.74,1.04,4.08,1.48,1.35.44,2.66.85,3.96,1.19s2.59.61,3.86.85c1.26.24,2.5.44,3.73.59,1.23.15,2.42.25,3.61.32,1.19.06,2.36.11,3.51.1,1.16-.02,2.3-.1,3.42-.2,1.12-.09,2.23-.21,3.33-.37,1.08-.17,2.14-.37,3.2-.59,1.05-.23,2.11-.47,3.14-.76,1.02-.28,2.04-.6,3.04-.94.99-.34,1.98-.71,2.95-1.1.97-.38,1.91-.82,2.85-1.25.94-.44,1.87-.88,2.79-1.35.92-.47,1.81-.94,2.71-1.44.89-.51,1.79-1.04,2.66-1.58,1.74-1.05,3.4-2.16,5.05-3.29,1.65-1.13,3.26-2.28,4.83-3.45,3.15-2.33,6.16-4.7,9.04-6.9,1.44-1.1,2.88-2.16,4.27-3.17,1.39-1,2.76-1.93,4.11-2.79.67-.43,1.34-.84,2.01-1.22.67-.39,1.32-.76,1.98-1.1.65-.34,1.32-.66,1.98-.94.64-.29,1.29-.56,1.94-.79.64-.22,1.26-.39,1.88-.53.61-.15,1.23-.28,1.82-.35.61-.07,1.16-.07,1.73-.06.54,0,1.13.02,1.69.09.55.08,1.12.21,1.66.35.55.14,1.07.3,1.6.5.55.2,1.1.41,1.64.66s1.06.55,1.6.85c.55.3,1.09.62,1.63.97.55.35,1.11.71,1.67,1.1,1.12.77,2.26,1.63,3.45,2.54,1.19.91,2.42,1.87,3.73,2.89,1.31,1.01,2.68,2.06,4.14,3.13s3.03,2.17,4.68,3.26c.82.55,1.66,1.09,2.54,1.64.87.54,1.76,1.08,2.69,1.63.94.54,1.92,1.1,2.93,1.63,1,.53,2.04,1.05,3.11,1.57,1.06.52,2.15,1.03,3.29,1.53,1.14.51,2.33,1,3.54,1.48,1.22.48,2.47.93,3.77,1.38s2.63.9,4.01,1.32c1.39.42,2.83.81,4.3,1.19,1.48.38,2.98.76,4.55,1.1s3.19.65,4.86.94c1.67.29,3.4.54,5.18.78,1.78.25,3.6.48,5.49.66,1.89.19,3.83.35,5.83.48,2,.12,3.98.28,5.96.43,1.99.16,3.97.34,5.93.54,1.97.19,3.93.37,5.87.59,1.94.22,3.86.48,5.77.73,3.83.49,7.59,1.01,11.3,1.6,3.71.58,7.35,1.22,10.91,1.88.49.08.9.16,1.35.24.66-4.44,1-8.93,1.01-13.42-.04-49.3-38.82-89.88-88.07-92.15,0-.34.02-.68.03-1.03,0-21.25-8.43-41.64-23.46-56.67-15.03-15.04-35.41-23.48-56.66-23.49-14.35.01-28.44,3.87-40.79,11.17-24.1-41.68-68.59-67.35-116.74-67.35h-.04Z"/>
</svg>