<?xml version="1.0" encoding="UTF-8"?>
<svg id="_Слой_1" data-name="Слой_1" xmlns="http://www.w3.org/2000/svg" viewBox="0 0 50 40">
  <defs>
    <style>
      .cls-1 {
        fill: #fff;
        fill-rule: evenodd;
      }

      .cls-2 {
        fill: #da3826;
      }
    </style>
  </defs>
  <rect class="cls-2" x="-4.03" y="-.69" width="56.23" height="41.81"/>
  <path class="cls-1" d="M30.18,17.25c.12,0,.24,0,.36,0,0,.39,0,.78,0,1.17.49-.01.97,0,1.46,0,0,.41,0,.82,0,1.22-.49,0-.98,0-1.48,0,0,.59,0,1.18,0,1.77,0,.25.18.5.44.53.33.07.64-.11.84-.34.08.35.16.69.25,1.04-.25.34-.67.53-1.09.54-.41.01-.85-.07-1.16-.36-.32-.29-.43-.74-.43-1.16,0-.67,0-1.35,0-2.02-.26,0-.52,0-.79,0,.01-.15-.05-.34.07-.46.51-.64,1.01-1.28,1.52-1.92h0ZM2.59,17.9c.5-.41,1.16-.66,1.81-.62,1.07,0,2.14,0,3.21,0,.78-.04,1.57.27,2.15.8.37.28.69.63,1.09.85.64.36,1.4.32,2.1.44.67.05,1.26.63,1.31,1.31,0,.38,0,.77,0,1.15.01.51-.33,1-.81,1.19-.34.15-.73.08-1.09.09-.22.69-.92,1.2-1.65,1.15-.67-.02-1.29-.51-1.5-1.15-1.15,0-2.31,0-3.46,0-.14.41-.44.77-.83.97-.52.28-1.2.23-1.68-.11-.3-.2-.52-.52-.64-.86-.2,0-.41,0-.61,0-.55,0-1.08-.36-1.27-.88-.1-.26-.08-.54-.08-.81,0-.38-.03-.77.08-1.15.13-.48.37-.93.74-1.27.39-.36.75-.74,1.14-1.11h0ZM3.76,18.44c-.44.15-.72.54-1.05.85-.31.33-.7.6-.87,1.02-.2.38-.11.82-.13,1.23.01.13-.06.33.11.39.26.08.54.02.81.04.27-.61.91-1.09,1.6-1.06.65.01,1.24.47,1.5,1.06,1.17,0,2.34,0,3.52,0,.18-.36.45-.69.81-.87.49-.28,1.14-.25,1.61.07.3.19.53.48.68.8.26-.01.53.03.78-.03.02-.02.05-.05.07-.07.03-.34,0-.68.01-1.03.02-.2-.16-.39-.36-.4-.39-.05-.77-.1-1.16-.14-.63-.06-1.24-.31-1.75-.68-.38-.31-.75-.63-1.14-.94-.33-.23-.73-.37-1.13-.35-.98,0-1.95,0-2.93,0-.33,0-.67-.04-.98.1h0ZM3.95,22.08c-.36.15-.46.67-.15.92.3.3.86.11.92-.31.1-.42-.39-.81-.77-.62h0ZM10.55,22.08c-.19.09-.32.29-.33.49,0,.29.24.57.54.57.38.04.71-.4.55-.75-.1-.29-.47-.46-.75-.31h0ZM34.97,18.31c.55-.06,1.12.06,1.59.36.56.34.97.92,1.1,1.57.13.64.01,1.34-.37,1.89-.39.57-1.03.96-1.72,1.04-.64.08-1.3-.1-1.81-.49-.5-.38-.84-.96-.92-1.58-.1-.65.08-1.34.48-1.85.39-.52,1-.85,1.65-.93h0ZM34.95,19.55c-.48.1-.89.49-.96.97-.08.42.08.88.42,1.15.46.36,1.15.38,1.63.05.32-.22.52-.6.51-.99.02-.4-.2-.8-.53-1.01-.31-.2-.7-.27-1.06-.18h0ZM42.72,18.48c.42-.29,1.05-.25,1.39.14-.05.36-.12.71-.16,1.07-.26-.14-.57-.24-.86-.16-.42.08-.76.49-.72.92,0,.87,0,1.73,0,2.6-.38,0-.77,0-1.15,0,0-1.55,0-3.09,0-4.64.37,0,.75,0,1.12,0,0,.19,0,.38,0,.57.09-.19.21-.39.39-.51h0ZM17.84,19.14c.46-.57,1.2-.9,1.94-.85.46.02.96.17,1.24.56,0-.15,0-.29,0-.44.37,0,.75,0,1.12,0,0,1.55,0,3.09,0,4.64-.37,0-.74,0-1.12,0,0-.15,0-.3,0-.45-.22.31-.58.47-.94.53-.83.16-1.74-.18-2.26-.84-.72-.89-.71-2.28.03-3.16h0ZM19.34,19.57c-.22.06-.42.17-.57.33-.43.44-.43,1.23,0,1.67.37.37.95.46,1.44.33.3-.08.62-.25.76-.54.02-.38,0-.76,0-1.14,0-.18-.13-.31-.26-.42-.39-.28-.92-.36-1.38-.23h0ZM23.4,18.43c.39-.02.77,0,1.16,0,0,.85,0,1.71,0,2.56,0,.35.18.7.49.87.42.22.97.11,1.3-.22.1-.12.2-.26.2-.42,0-.93,0-1.86,0-2.79.39,0,.77,0,1.16,0,0,1.55,0,3.09,0,4.64-.37,0-.75,0-1.12,0,0-.14,0-.29,0-.43-.16.31-.5.47-.83.52-.62.11-1.29-.05-1.75-.48-.37-.35-.57-.86-.59-1.36-.02-.96.01-1.92-.02-2.88h0ZM44.88,18.42c.39,0,.77,0,1.16,0,0,.85,0,1.7,0,2.55,0,.34.16.68.45.85.42.25,1,.14,1.34-.2.11-.12.2-.26.2-.42,0-.93,0-1.85,0-2.78.39-.01.77,0,1.16,0,0,1.55,0,3.09,0,4.64-.37,0-.75,0-1.12,0,0-.14,0-.28,0-.42-.16.25-.42.42-.71.48-.64.15-1.35,0-1.85-.43-.42-.37-.62-.94-.62-1.49-.01-.93,0-1.86,0-2.79h0ZM38.99,21.64c.38-.12.84.08.97.46.17.4-.06.92-.48,1.04-.4.15-.89-.09-1-.51-.14-.4.1-.89.51-1Z"/>
</svg>