<?xml version="1.0" encoding="UTF-8"?>
<svg id="_Слой_1" data-name="Слой_1" xmlns="http://www.w3.org/2000/svg" viewBox="0 0 50 40">
  <defs>
    <style>
      .cls-1 {
        fill: #7660a7;
      }

      .cls-2 {
        fill: #47a2db;
      }

      .cls-3 {
        fill: #e94557;
      }

      .cls-4 {
        fill: #010101;
      }

      .cls-5 {
        fill: #5bb359;
      }
    </style>
  </defs>
  <path class="cls-4" d="M19.27,14.11l-4.19,10.96h2.25l.87-2.29h4.45l.87,2.29h2.24l-4.18-10.96h-2.31ZM18.96,20.77l1.47-3.86,1.46,3.86h-2.93,0Z"/>
  <path class="cls-4" d="M45.31,17.24c-.79,0-1.56.23-2.22.67s-1.17,1.06-1.47,1.79c-.3.73-.38,1.53-.23,2.3.15.77.53,1.48,1.09,2.04.56.56,1.27.94,2.04,1.09.77.15,1.57.07,2.3-.23.73-.3,1.35-.81,1.79-1.47s.67-1.43.67-2.21c0-1.06-.42-2.07-1.17-2.82-.75-.75-1.76-1.17-2.82-1.17h0ZM45.31,23.16c-.38,0-.76-.11-1.08-.33-.32-.21-.57-.52-.72-.87-.15-.36-.19-.75-.11-1.12.07-.38.26-.72.53-.99.27-.27.62-.46.99-.53s.77-.04,1.12.11c.35.15.66.4.87.72s.33.69.33,1.08c0,.26-.05.51-.15.74s-.24.45-.42.63c-.18.18-.39.32-.63.42-.24.1-.49.15-.74.15h0Z"/>
  <path class="cls-4" d="M28.44,22.25l-1.82-4.87h-2.15l2.93,7.7h2.13l2.88-7.7h-2.15l-1.82,4.87h0Z"/>
  <path class="cls-4" d="M39.17,15.33h-2.05v2.05h-1.2v1.84h1.2v3.28c0,1.86,1.02,2.65,2.46,2.65.49,0,.97-.09,1.42-.28v-1.91c-.24.09-.5.14-.76.14-.62,0-1.07-.24-1.07-1.07v-2.81h1.84v-1.84h-1.84v-2.05h0Z"/>
  <path class="cls-4" d="M34.09,16.82c.82,0,1.49-.67,1.49-1.49s-.67-1.49-1.49-1.49-1.49.67-1.49,1.49.67,1.49,1.49,1.49Z"/>
  <path class="cls-4" d="M35.12,17.37h-2.05v7.7h2.05v-7.7Z"/>
  <path class="cls-5" d="M4.69,26.16c2.2,0,3.99-1.79,3.99-3.99s-1.79-3.99-3.99-3.99-3.99,1.79-3.99,3.99,1.79,3.99,3.99,3.99Z"/>
  <path class="cls-3" d="M11.61,25.66c1.33,0,2.41-1.08,2.41-2.41s-1.08-2.41-2.41-2.41-2.41,1.08-2.41,2.41,1.08,2.41,2.41,2.41Z"/>
  <path class="cls-1" d="M5.45,17.67c.82,0,1.49-.67,1.49-1.49s-.67-1.49-1.49-1.49-1.49.67-1.49,1.49.67,1.49,1.49,1.49Z"/>
  <path class="cls-2" d="M10.67,20.32c1.79,0,3.24-1.45,3.24-3.24s-1.45-3.24-3.24-3.24-3.24,1.45-3.24,3.24,1.45,3.24,3.24,3.24Z"/>
</svg>