<?xml version="1.0" encoding="UTF-8"?>
<svg id="_Слой_1" data-name="Слой_1" xmlns="http://www.w3.org/2000/svg" viewBox="0 0 207.18 66.61">
  <defs>
    <style>
      .cls-1, .cls-2 {
        fill: #fff;
      }

      .cls-2 {
        fill-rule: evenodd;
      }

      .cls-3 {
        fill: #d81a1e;
      }
    </style>
  </defs>
  <path class="cls-3" d="M5.12,0h196.94c2.83,0,5.12,2.29,5.12,5.12v56.37c0,2.83-2.29,5.12-5.12,5.12H5.12C2.29,66.61,0,64.32,0,61.49V5.12C0,2.29,2.29,0,5.12,0Z"/>
  <g>
    <path class="cls-1" d="M40.38,10.2c-11.78,0-21.39,9.31-21.87,20.98,3.34-1.75,6.38-.5,7.87.87,1.87,1.72,2.06,4.18,1.84,6.45,4.1-.55,5.34,4.06,5.25,5.3-.04.5-.08.55-.19.62-.05.03-.24.06-.39,0,0-.24-.07-.49-.19-.75-.1-.2-.2-.4-.3-.59-.4-.91-1.19-2-2.27-2.45-.31-.17-.65-.31-1.02-.41-.71-.19-1.48-.02-2.18.16-.32.08-.64.18-.96.26-.13.03-.27.05-.41.08-.22-.26-.39-.57-.35-.84.33-.42.71-.74,1.08-.96.22-1.55-.29-5.31-4.23-5.27-1.15.01-2.38.71-3.26,2.03,1.71,10.38,10.73,18.3,21.6,18.3,12.09,0,21.89-9.8,21.89-21.89s-9.8-21.89-21.89-21.89ZM36.77,33.17c-.14.75-.42,2.95-.46,4.35-.04,1.62.06,3.68-.74,2.85-.5-.52-.95-1.56-1.1-2.64-.15-1.08-.68-4.93.23-8.03.2-.68.85-1.33,2.29-1.45,3.48-.29,6.07-.3,9.14.27.61.11,2.06.41,2.74.82.19.12.12.28-.14.36-2.57.74-6.01.35-9.13.81-1.41.21-2.49.81-2.83,2.66ZM44.93,41.06c-.13.75-.57,1.45-1.21,1.91-.47.33-1.02.55-1.65.57h-.27c-.89-.04-1.69-.43-2.26-1.16-.45-.58-.63-1.14-.71-1.84-.04-.72.19-1.34.57-1.86.19-.27.45-.5.71-.69.09-.06.21-.13.29-.17.24-.14.52-.24.79-.3.2-.04.4-.07.62-.07.71,0,1.35.19,1.88.58.26.18.5.42.69.68.1.14.2.29.27.46.15.29.24.61.29.96.04.31.02.65-.03.93ZM53.96,41.31c-.02.19-.07.36-.14.54-.1.29-.27.56-.48.78-.44.49-1.01.8-1.66.89-.08.01-.17.01-.26.01-.08,0-.17,0-.25,0-.05,0-.11-.01-.17-.01-.03,0-.07-.02-.11-.02-.02,0-.05-.01-.07-.02-.1-.01-.18-.04-.26-.06-.27-.08-.52-.2-.74-.36-.18-.13-.37-.3-.52-.48-.29-.34-.49-.75-.56-1.2-.03-.12-.04-.24-.04-.37-.03-.54.12-1.03.36-1.45.29-.49.76-.86,1.27-1.04.09-.04.19-.07.29-.08.48-.09,1.14-.03,1.66.16.3.09.57.27.82.48.65.54,1.01,1.34.88,2.24ZM56.87,41.26c-.21-.17-.24-2.3-.42-3.41-.29-1.81-4.33-.75-5.55-2.69-.31-.49-.9-2.36-.75-3.76.03-.26.08-.36.24-.36.48,0,1.42,2.08,2.19,2.96.25.29.57.37.79.43,1.44.39,2.48.6,3.56.96,1.13.38,1.3,1.04,1.38,1.33.13.46.09,2.38-.81,4.16-.18.35-.44.52-.62.38Z"/>
    <g>
      <path class="cls-2" d="M117.01,18.06c5.98,0,9.5,3.88,9.5,10.21v6.82c0,5.76-2.98,10.36-9.5,10.36-2.58,0-4.52-1.45-5.7-2.81v14.47h-6.08V18.35h6.08v1.91c1.45-1.3,3.25-2.19,5.7-2.19ZM115.91,23.31c-2.95,0-4.59,2.28-4.62,4.84v7.06c0,2.69,1.6,5,4.63,5,1.95,0,4.57-.67,4.57-5v-6.89c0-3.16-1.36-5-4.59-5Z"/>
      <path class="cls-2" d="M142.48,18.06h-1.08c-7.47,0-10.19,4.76-10.19,10.21v7.03c0,5.54,2.82,10.14,10.21,10.14h1.04c7.4,0,10.21-4.61,10.21-10.14v-7.03c0-5.44-2.73-10.21-10.19-10.21ZM146.66,35.3c0,4.43-2.51,4.91-4.52,4.91h-.39c-3.25,0-4.52-1.62-4.52-4.91v-7.05c0-4.28,2.36-4.95,4.52-4.95h.39c2.94,0,4.52,1.37,4.52,4.95v7.05Z"/>
      <path class="cls-1" d="M74.47,39.59c1.39,0,2.18-.95,2.36-2.84.36-4.21.82-10.34,1.39-18.38h18.85v21.22h2.89v11.12h-6.27v-5.55h-14.35v5.55h-6.27v-11.12h1.39ZM82.42,38.33c-.13.45-.24.76-.35.94l-.21.32h8.99v-15.65h-7.22c-.39,5.5-.72,9.84-.96,13.02-.04.46-.12.92-.24,1.37Z"/>
      <path class="cls-1" d="M188.59,45.17h-6.09v-12.4l.25-6.64-6.65,19.05h-6.06l-6.62-19.05.25,6.64v12.4h-6.09v-26.82h8.82l6.67,19.09,6.72-19.09h8.79v26.82Z"/>
    </g>
  </g>
</svg>