<?xml version="1.0" encoding="utf-8"?>
<!-- Generator: Adobe Illustrator 23.0.2, SVG Export Plug-In . SVG Version: 6.00 Build 0)  -->
<svg version="1.1" id="Layer_1" xmlns="http://www.w3.org/2000/svg" xmlns:xlink="http://www.w3.org/1999/xlink" x="0px" y="0px"
	 viewBox="0 0 232.7 80.3" style="enable-background:new 0 0 232.7 80.3;" xml:space="preserve">
<style type="text/css">
	.st0{fill:url(#SVGID_1_);}
	.st1{opacity:0.8;fill:url(#SVGID_2_);enable-background:new    ;}
</style>
<g>
	<g>
		<path d="M156.6,68c-1.5,2.8-3.5,2.6-5.7,2.6v9.3c0,0,1.8,0.4,4.6,0.4c4.4,0,8-1.9,10.3-6.8s2.6-14,3.7-23.9h10.7v29.8h10.3V40.6
			h-30.4C158.9,53.5,158.2,64.9,156.6,68z"/>
		<path d="M130.2,39.7c-9.7,0-16.9,6.2-18.6,15.8h-5.3V40.6H96v38.7h10.3V64.4h5.3c1.7,9.6,8.8,15.8,18.6,15.8
			c11.2,0,18.9-8.2,18.9-20.3S141.3,39.7,130.2,39.7z M130.2,70.9c-5.3,0-8.9-4.2-8.9-11c0-6.7,3.6-11,8.9-11c5.3,0,8.9,4.2,8.9,11
			C139.1,66.7,135.5,70.9,130.2,70.9z"/>
		<g>
			<path d="M214.4,39.7c-5.2,0-10.2,0.7-14.6,2.1V51c0,0,5.6-2.1,13.2-2.1c8.5,0,9.4,4.3,9.4,6.3l0,0.7c0,0-4.2-0.7-8.6-0.7
				c-14.2,0-17.2,7.4-17.2,12.5c0,5.1,3.2,12.5,14.4,12.5c5.8,0,9.9-2.7,11.9-5h0.4v4h9.4V57.6C232.7,50.8,231.2,39.7,214.4,39.7z
				 M222.5,67.4c0,0-2.7,4.1-8.9,4.1c-3.9,0-5.7-1.7-5.7-4.2c0-2.5,2-4.7,8.9-4.7c3.3,0,5.8,0,5.8,0V67.4z"/>
		</g>
	</g>
</g>
<g>
	<radialGradient id="SVGID_1_" cx="77.8013" cy="-1.6849" r="89.2248" gradientUnits="userSpaceOnUse">
		<stop  offset="0.2281" style="stop-color:#00FFFE"/>
		<stop  offset="0.3047" style="stop-color:#11F3FE"/>
		<stop  offset="0.4569" style="stop-color:#3ED3FE"/>
		<stop  offset="0.6706" style="stop-color:#86A0FF"/>
		<stop  offset="0.9352" style="stop-color:#E95AFF"/>
		<stop  offset="0.9531" style="stop-color:#F055FF"/>
	</radialGradient>
	<path class="st0" d="M42.2,78.5c5.6-17.2,19.2-30.7,36.4-36.4c1.2-0.4,1.8-1.7,1.4-2.8c-0.2-0.7-0.7-1.2-1.4-1.4
		C61.3,32.3,47.8,18.8,42.2,1.5c-0.4-1.2-1.7-1.8-2.8-1.4c-0.7,0.2-1.2,0.7-1.4,1.4C32.3,18.8,18.8,32.3,1.6,37.9
		c-1.2,0.4-1.8,1.7-1.4,2.8c0.2,0.7,0.7,1.2,1.4,1.4c17.2,5.6,30.7,19.1,36.4,36.4c0.4,1.2,1.7,1.8,2.8,1.4
		C41.4,79.7,41.9,79.2,42.2,78.5z"/>
	
		<radialGradient id="SVGID_2_" cx="67.116" cy="36.0776" r="50.4218" gradientTransform="matrix(1 0 0 -1 0 81.4288)" gradientUnits="userSpaceOnUse">
		<stop  offset="0" style="stop-color:#053BF2"/>
		<stop  offset="9.086823e-02" style="stop-color:#0F3CF3;stop-opacity:0.9091"/>
		<stop  offset="0.2469" style="stop-color:#2B3FF4;stop-opacity:0.7531"/>
		<stop  offset="0.4492" style="stop-color:#5844F7;stop-opacity:0.5508"/>
		<stop  offset="0.69" style="stop-color:#964BFA;stop-opacity:0.31"/>
		<stop  offset="0.9606" style="stop-color:#E454FE;stop-opacity:3.936458e-02"/>
		<stop  offset="1" style="stop-color:#F055FF;stop-opacity:0"/>
	</radialGradient>
	<path class="st1" d="M1.6,42.1c17.2,5.6,30.7,19.1,36.4,36.4c0.4,1.2,1.7,1.8,2.8,1.4c0.7-0.2,1.2-0.7,1.4-1.4
		c5.6-17.2,19.2-30.7,36.4-36.4c-8.2,2.7-22,4.8-38.5,4.8S9.7,44.8,1.6,42.1z"/>
</g>
</svg>
